<?xml version="1.0" encoding="UTF-8" standalone="no"?>
<!-- Created with Inkscape (http://www.inkscape.org/) -->

<svg
   xmlns:dc="http://purl.org/dc/elements/1.1/"
   xmlns:cc="http://creativecommons.org/ns#"
   xmlns:rdf="http://www.w3.org/1999/02/22-rdf-syntax-ns#"
   xmlns:svg="http://www.w3.org/2000/svg"
   xmlns="http://www.w3.org/2000/svg"
   xmlns:sodipodi="http://sodipodi.sourceforge.net/DTD/sodipodi-0.dtd"
   xmlns:inkscape="http://www.inkscape.org/namespaces/inkscape"
   width="200"
   height="160"
   id="svg8313"
   version="1.1"
   inkscape:version="0.48.2 r9819"
   sodipodi:docname="off-logo-en.svg"
   inkscape:export-filename="C:\Users\Stéphane\Desktop\Blogs\OpenFoodFacts\off-logo-en.800x640.png"
   inkscape:export-xdpi="360"
   inkscape:export-ydpi="360">
  <defs
     id="defs8315" />
  <sodipodi:namedview
     id="base"
     pagecolor="#ffffff"
     bordercolor="#666666"
     borderopacity="1.0"
     inkscape:pageopacity="0.0"
     inkscape:pageshadow="2"
     inkscape:zoom="2.7220024"
     inkscape:cx="42.007043"
     inkscape:cy="59.959498"
     inkscape:document-units="px"
     inkscape:current-layer="layer1"
     showgrid="true"
     inkscape:window-width="1920"
     inkscape:window-height="1018"
     inkscape:window-x="-8"
     inkscape:window-y="-8"
     inkscape:window-maximized="1"
     inkscape:snap-global="true">
    <inkscape:grid
       type="xygrid"
       id="grid8566" />
  </sodipodi:namedview>
  <metadata
     id="metadata8318">
    <rdf:RDF>
      <cc:Work
         rdf:about="">
        <dc:format>image/svg+xml</dc:format>
        <dc:type
           rdf:resource="http://purl.org/dc/dcmitype/StillImage" />
        <dc:title />
      </cc:Work>
    </rdf:RDF>
  </metadata>
  <g
     inkscape:label="Calque 1"
     inkscape:groupmode="layer"
     id="layer1">
    <rect
       style="fill:#ffffff;fill-opacity:1;fill-rule:evenodd;stroke:none"
       id="rect7640"
       height="180"
       x="-10"
       y="-10"
       width="220" />
    <path
       inkscape:export-ydpi="180"
       inkscape:export-xdpi="180"
       inkscape:export-filename="C:\Users\Stéphane\Desktop\Blogs\OpenFoodFacts\openfoodfacts-logo-356.png"
       inkscape:connector-curvature="0"
       style="fill:#0066ff;fill-opacity:1;fill-rule:nonzero;stroke:none"
       d="m 181,35 0,6.41101 c 1.19571,0.444338 2.21393,1.060483 3,1.761208 L 184,35 z m 4,0 0,8.312003 1,-0.838676 L 186,35 z m 2,0 0,6.606702 1,-0.978462 0,11.7694 -1,-1.00641 0,52.60877 2,0 0,-69 z M 185,49.685929 185,104 l 1,0 0,-53.475406 z m -1,0.139774 c -0.78598,0.701951 -1.79569,1.313237 -3,1.76122 L 181,104 l 3,0 z"
       id="path7944"
       sodipodi:nodetypes="ccccccccccccccccccccccccccccc" />
    <path
       inkscape:export-ydpi="180"
       inkscape:export-xdpi="180"
       inkscape:export-filename="C:\Users\Stéphane\Desktop\Blogs\OpenFoodFacts\openfoodfacts-logo-356.png"
       inkscape:connector-curvature="0"
       style="fill:#00ccff;fill-opacity:1;fill-rule:nonzero;stroke:none"
       d="m 165,35 0,69 3,0 0,-53.810872 c -1.32362,-1.014805 -2.12462,-2.271422 -2.12462,-3.662215 0,-1.390781 0.801,-2.675356 2.12462,-3.690161 L 168,35 z m 4,0 0,7.193768 c 1.12603,-0.642997 2.47034,-1.128715 4,-1.397795 L 173,35 z m 5,0 0,5.62824 c 0.32965,-0.03644 0.65978,-0.03965 1,-0.05585 l 0,-5.572333 c -0.35153,4.6e-5 -0.64847,-3.3e-5 -1,-5.7e-5 z m 2,0 0,5.544374 c 0.68266,0.0083 1.35814,0.08097 2,0.167733 L 178,35 z M 169,50.860072 169,104 l 4,0 0,-51.770093 c -1.58676,-0.26883 -2.87451,-0.727732 -4,-1.369835 z m 9,1.481649 c -0.64077,0.08753 -1.31859,0.131652 -2,0.139785 L 176,104 l 2,0 z m -4,0.05597 0,51.602309 1,0 0,-51.546402 c -0.34022,-0.01632 -0.67076,-0.01941 -1.00041,-0.05585 z"
       id="path7946"
       sodipodi:nodetypes="ccccscccccccccccccccccccccccccccccccccc" />
    <path
       inkscape:export-ydpi="180"
       inkscape:export-xdpi="180"
       inkscape:export-filename="C:\Users\Stéphane\Desktop\Blogs\OpenFoodFacts\openfoodfacts-logo-356.png"
       inkscape:connector-curvature="0"
       id="path7948"
       d="m 161,35 0,69 1,0 0,-69 z"
       style="fill:#00d400;fill-opacity:1;fill-rule:nonzero;stroke:none"
       sodipodi:nodetypes="ccccc" />
    <path
       inkscape:export-ydpi="180"
       inkscape:export-xdpi="180"
       inkscape:export-filename="C:\Users\Stéphane\Desktop\Blogs\OpenFoodFacts\openfoodfacts-logo-356.png"
       inkscape:connector-curvature="0"
       id="path7950"
       d="m 157,35 0,69 3,0 0,-69 z"
       style="fill:#00d400;fill-opacity:1;fill-rule:nonzero;stroke:none"
       sodipodi:nodetypes="ccccc" />
    <path
       inkscape:export-ydpi="180"
       inkscape:export-xdpi="180"
       inkscape:export-filename="C:\Users\Stéphane\Desktop\Blogs\OpenFoodFacts\openfoodfacts-logo-356.png"
       inkscape:connector-curvature="0"
       id="path7952"
       d="m 154,35 0,69 2,0 0,-69 z"
       style="fill:#00d400;fill-opacity:1;fill-rule:nonzero;stroke:none"
       sodipodi:nodetypes="ccccc" />
    <path
       inkscape:export-ydpi="180"
       inkscape:export-xdpi="180"
       inkscape:export-filename="C:\Users\Stéphane\Desktop\Blogs\OpenFoodFacts\openfoodfacts-logo-356.png"
       inkscape:connector-curvature="0"
       id="path7954"
       d="m 152,35 0,69 1,0 0,-69 z"
       style="fill:#00d400;fill-opacity:1;fill-rule:nonzero;stroke:none"
       sodipodi:nodetypes="ccccc" />
    <path
       inkscape:export-ydpi="180"
       inkscape:export-xdpi="180"
       inkscape:export-filename="C:\Users\Stéphane\Desktop\Blogs\OpenFoodFacts\openfoodfacts-logo-356.png"
       inkscape:connector-curvature="0"
       id="path7956"
       d="m 146,33 0,71 3,0 -5e-5,-69 z"
       style="fill:#00d400;fill-opacity:1;fill-rule:nonzero;stroke:none"
       sodipodi:nodetypes="ccccc" />
    <path
       inkscape:export-ydpi="180"
       inkscape:export-xdpi="180"
       inkscape:export-filename="C:\Users\Stéphane\Desktop\Blogs\OpenFoodFacts\openfoodfacts-logo-356.png"
       inkscape:connector-curvature="0"
       id="path7958"
       d="m 143,35 0,69 2,0 -4e-5,-69 z"
       style="fill:#00d400;fill-opacity:1;fill-rule:nonzero;stroke:none"
       sodipodi:nodetypes="ccccc" />
    <path
       inkscape:export-ydpi="180"
       inkscape:export-xdpi="180"
       inkscape:export-filename="C:\Users\Stéphane\Desktop\Blogs\OpenFoodFacts\openfoodfacts-logo-356.png"
       inkscape:connector-curvature="0"
       id="path7960"
       d="m 140,35 0,69 2,0 1e-5,-69 z"
       style="fill:#00d400;fill-opacity:1;fill-rule:nonzero;stroke:none"
       sodipodi:nodetypes="ccccc" />
    <path
       inkscape:export-ydpi="180"
       inkscape:export-xdpi="180"
       inkscape:export-filename="C:\Users\Stéphane\Desktop\Blogs\OpenFoodFacts\openfoodfacts-logo-356.png"
       inkscape:connector-curvature="0"
       id="path7962"
       d="m 136,35 0,69 1,0 5e-5,-69 z"
       style="fill:#00d400;fill-opacity:1;fill-rule:nonzero;stroke:none"
       sodipodi:nodetypes="ccccc" />
    <path
       inkscape:export-ydpi="180"
       inkscape:export-xdpi="180"
       inkscape:export-filename="C:\Users\Stéphane\Desktop\Blogs\OpenFoodFacts\openfoodfacts-logo-356.png"
       inkscape:connector-curvature="0"
       id="path7964"
       d="m 132,35 0,69 1,0 6e-5,-69 z"
       style="fill:#00d400;fill-opacity:1;fill-rule:nonzero;stroke:none"
       sodipodi:nodetypes="ccccc" />
    <path
       inkscape:export-ydpi="180"
       inkscape:export-xdpi="180"
       inkscape:export-filename="C:\Users\Stéphane\Desktop\Blogs\OpenFoodFacts\openfoodfacts-logo-356.png"
       inkscape:connector-curvature="0"
       id="path7966"
       d="m 127,35 0,69 2,0 1e-5,-69 z"
       style="fill:#00d400;fill-opacity:1;fill-rule:nonzero;stroke:none"
       sodipodi:nodetypes="ccccc" />
    <path
       inkscape:export-ydpi="180"
       inkscape:export-xdpi="180"
       inkscape:export-filename="C:\Users\Stéphane\Desktop\Blogs\OpenFoodFacts\openfoodfacts-logo-356.png"
       inkscape:connector-curvature="0"
       id="path7968"
       d="m 123,35 0,69 1,0 -5e-5,-69 z"
       style="fill:#00d400;fill-opacity:1;fill-rule:nonzero;stroke:none"
       sodipodi:nodetypes="ccccc" />
    <path
       inkscape:export-ydpi="180"
       inkscape:export-xdpi="180"
       inkscape:export-filename="C:\Users\Stéphane\Desktop\Blogs\OpenFoodFacts\openfoodfacts-logo-356.png"
       inkscape:connector-curvature="0"
       id="path7970"
       d="m 121,35 0,69 1,0 -5e-5,-69 z"
       style="fill:#00d400;fill-opacity:1;fill-rule:nonzero;stroke:none"
       sodipodi:nodetypes="ccccc" />
    <path
       inkscape:export-ydpi="180"
       inkscape:export-xdpi="180"
       inkscape:export-filename="C:\Users\Stéphane\Desktop\Blogs\OpenFoodFacts\openfoodfacts-logo-356.png"
       inkscape:connector-curvature="0"
       id="path7972"
       d="m 119,35 0,69 1,0 4e-5,-69 z"
       style="fill:#00d400;fill-opacity:1;fill-rule:nonzero;stroke:none"
       sodipodi:nodetypes="ccccc" />
    <path
       inkscape:export-ydpi="180"
       inkscape:export-xdpi="180"
       inkscape:export-filename="C:\Users\Stéphane\Desktop\Blogs\OpenFoodFacts\openfoodfacts-logo-356.png"
       inkscape:connector-curvature="0"
       id="path7974"
       d="m 114,35 0,69 2,0 1e-5,-69 z"
       style="fill:#00d400;fill-opacity:1;fill-rule:nonzero;stroke:none"
       sodipodi:nodetypes="ccccc" />
    <path
       inkscape:export-ydpi="180"
       inkscape:export-xdpi="180"
       inkscape:export-filename="C:\Users\Stéphane\Desktop\Blogs\OpenFoodFacts\openfoodfacts-logo-356.png"
       inkscape:connector-curvature="0"
       id="path7976"
       d="m 110,35 0,69 1,0 0,-69 z"
       style="fill:#00d400;fill-opacity:1;fill-rule:nonzero;stroke:none"
       sodipodi:nodetypes="ccccc" />
    <path
       inkscape:export-ydpi="180"
       inkscape:export-xdpi="180"
       inkscape:export-filename="C:\Users\Stéphane\Desktop\Blogs\OpenFoodFacts\openfoodfacts-logo-356.png"
       inkscape:connector-curvature="0"
       id="path7978"
       d="m 106,35 0.0166,69 0.98337,0 -0.0171,-69 z"
       style="fill:#00d400;fill-opacity:1;fill-rule:nonzero;stroke:none"
       sodipodi:nodetypes="ccccc" />
    <path
       inkscape:export-ydpi="180"
       inkscape:export-xdpi="180"
       inkscape:export-filename="C:\Users\Stéphane\Desktop\Blogs\OpenFoodFacts\openfoodfacts-logo-356.png"
       inkscape:connector-curvature="0"
       id="path7980"
       d="m 101,30 0,74 2,0 0,-74 z"
       style="fill:#ffcc00;fill-opacity:1;fill-rule:nonzero;stroke:none"
       sodipodi:nodetypes="ccccc" />
    <path
       inkscape:export-ydpi="180"
       inkscape:export-xdpi="180"
       inkscape:export-filename="C:\Users\Stéphane\Desktop\Blogs\OpenFoodFacts\openfoodfacts-logo-356.png"
       inkscape:connector-curvature="0"
       id="path7983"
       d="m 99,35 0,69 1,0 0,-69 z"
       style="fill:#ffcc00;fill-opacity:1;fill-rule:nonzero;stroke:none"
       sodipodi:nodetypes="ccccc" />
    <path
       inkscape:export-ydpi="180"
       inkscape:export-xdpi="180"
       inkscape:export-filename="C:\Users\Stéphane\Desktop\Blogs\OpenFoodFacts\openfoodfacts-logo-356.png"
       inkscape:connector-curvature="0"
       id="path7985"
       d="m 96,19 0,85 2,0 0,-85 z"
       style="fill:#ffcc00;fill-opacity:1;fill-rule:nonzero;stroke:none"
       sodipodi:nodetypes="ccccc" />
    <path
       inkscape:export-ydpi="180"
       inkscape:export-xdpi="180"
       inkscape:export-filename="C:\Users\Stéphane\Desktop\Blogs\OpenFoodFacts\openfoodfacts-logo-356.png"
       inkscape:connector-curvature="0"
       id="path7987"
       d="m 92,35 0,69 3,0 4e-6,-69 z"
       style="fill:#ffcc00;fill-opacity:1;fill-rule:nonzero;stroke:none"
       sodipodi:nodetypes="ccccc" />
    <path
       inkscape:export-ydpi="180"
       inkscape:export-xdpi="180"
       inkscape:export-filename="C:\Users\Stéphane\Desktop\Blogs\OpenFoodFacts\openfoodfacts-logo-356.png"
       inkscape:connector-curvature="0"
       id="path7989"
       d="m 88,35 0,69 1,0 3e-6,-69 z"
       style="fill:#ffcc00;fill-opacity:1;fill-rule:nonzero;stroke:none"
       sodipodi:nodetypes="ccccc" />
    <path
       inkscape:export-ydpi="180"
       inkscape:export-xdpi="180"
       inkscape:export-filename="C:\Users\Stéphane\Desktop\Blogs\OpenFoodFacts\openfoodfacts-logo-356.png"
       inkscape:connector-curvature="0"
       id="path7991"
       d="m 85,29 0,75 2,0 -7e-6,-75 z"
       style="fill:#ffcc00;fill-opacity:1;fill-rule:nonzero;stroke:none"
       sodipodi:nodetypes="ccccc" />
    <path
       inkscape:export-ydpi="180"
       inkscape:export-xdpi="180"
       inkscape:export-filename="C:\Users\Stéphane\Desktop\Blogs\OpenFoodFacts\openfoodfacts-logo-356.png"
       inkscape:connector-curvature="0"
       id="path7993"
       d="m 81,35 0,69 3,0 4e-6,-69 z"
       style="fill:#ffcc00;fill-opacity:1;fill-rule:nonzero;stroke:none"
       sodipodi:nodetypes="ccccc" />
    <path
       inkscape:export-ydpi="180"
       inkscape:export-xdpi="180"
       inkscape:export-filename="C:\Users\Stéphane\Desktop\Blogs\OpenFoodFacts\openfoodfacts-logo-356.png"
       inkscape:connector-curvature="0"
       id="path7995"
       d="m 77,35 0,69 1,0 3e-6,-69 z"
       style="fill:#ffcc00;fill-opacity:1;fill-rule:nonzero;stroke:none"
       sodipodi:nodetypes="ccccc" />
    <path
       inkscape:export-ydpi="180"
       inkscape:export-xdpi="180"
       inkscape:export-filename="C:\Users\Stéphane\Desktop\Blogs\OpenFoodFacts\openfoodfacts-logo-356.png"
       inkscape:connector-curvature="0"
       id="path7997"
       d="m 75,35 0,69 1,0 10e-7,-69 z"
       style="fill:#ffcc00;fill-opacity:1;fill-rule:nonzero;stroke:none"
       sodipodi:nodetypes="ccccc" />
    <path
       inkscape:export-ydpi="180"
       inkscape:export-xdpi="180"
       inkscape:export-filename="C:\Users\Stéphane\Desktop\Blogs\OpenFoodFacts\openfoodfacts-logo-356.png"
       inkscape:connector-curvature="0"
       id="path7999"
       d="m 70,35 0.02596,69 1.974042,0 -0.02685,-69 z"
       style="fill:#ffcc00;fill-opacity:1;fill-rule:nonzero;stroke:none"
       sodipodi:nodetypes="ccccc" />
    <path
       inkscape:export-ydpi="180"
       inkscape:export-xdpi="180"
       inkscape:export-filename="C:\Users\Stéphane\Desktop\Blogs\OpenFoodFacts\openfoodfacts-logo-356.png"
       inkscape:connector-curvature="0"
       id="path8001"
       d="m 66,24 0,80 1,0 -9e-6,-80 z"
       style="fill:#ffcc00;fill-opacity:1;fill-rule:nonzero;stroke:none"
       sodipodi:nodetypes="ccccc" />
    <path
       inkscape:export-ydpi="180"
       inkscape:export-xdpi="180"
       inkscape:export-filename="C:\Users\Stéphane\Desktop\Blogs\OpenFoodFacts\openfoodfacts-logo-356.png"
       inkscape:connector-curvature="0"
       id="path8003"
       d="m 63,35 0,69 2,0 3e-6,-69 z"
       style="fill:#ffcc00;fill-opacity:1;fill-rule:nonzero;stroke:none"
       sodipodi:nodetypes="ccccc" />
    <path
       inkscape:export-ydpi="180"
       inkscape:export-xdpi="180"
       inkscape:export-filename="C:\Users\Stéphane\Desktop\Blogs\OpenFoodFacts\openfoodfacts-logo-356.png"
       inkscape:connector-curvature="0"
       id="path8005"
       d="m 57,35 0,69 3,0 -7e-6,-69 z"
       style="fill:#ffcc00;fill-opacity:1;fill-rule:nonzero;stroke:none"
       sodipodi:nodetypes="ccccc" />
    <path
       inkscape:export-ydpi="180"
       inkscape:export-xdpi="180"
       inkscape:export-filename="C:\Users\Stéphane\Desktop\Blogs\OpenFoodFacts\openfoodfacts-logo-356.png"
       inkscape:connector-curvature="0"
       id="path8007"
       d="m 55,35 0,69 1,0 10e-7,-69 z"
       style="fill:#ffcc00;fill-opacity:1;fill-rule:nonzero;stroke:none"
       sodipodi:nodetypes="ccccc" />
    <path
       inkscape:export-ydpi="180"
       inkscape:export-xdpi="180"
       inkscape:export-filename="C:\Users\Stéphane\Desktop\Blogs\OpenFoodFacts\openfoodfacts-logo-356.png"
       inkscape:connector-curvature="0"
       id="path8009"
       d="m 51,35 0,69 1,0 2e-6,-69 z"
       style="fill:#ffcc00;fill-opacity:1;fill-rule:nonzero;stroke:none"
       sodipodi:nodetypes="ccccc" />
    <path
       inkscape:export-ydpi="180"
       inkscape:export-xdpi="180"
       inkscape:export-filename="C:\Users\Stéphane\Desktop\Blogs\OpenFoodFacts\openfoodfacts-logo-356.png"
       inkscape:connector-curvature="0"
       id="path8011"
       d="m 48,35 0,69 2,0 4e-6,-69 z"
       style="fill:#ffcc00;fill-opacity:1;fill-rule:nonzero;stroke:none"
       sodipodi:nodetypes="ccccc" />
    <path
       inkscape:export-ydpi="180"
       inkscape:export-xdpi="180"
       inkscape:export-filename="C:\Users\Stéphane\Desktop\Blogs\OpenFoodFacts\openfoodfacts-logo-356.png"
       inkscape:connector-curvature="0"
       id="path8013"
       d="m 44,29 0,75 1,0 -7e-6,-75 z"
       style="fill:#ff0000;fill-opacity:1;fill-rule:nonzero;stroke:none"
       sodipodi:nodetypes="ccccc" />
    <path
       inkscape:export-ydpi="180"
       inkscape:export-xdpi="180"
       inkscape:export-filename="C:\Users\Stéphane\Desktop\Blogs\OpenFoodFacts\openfoodfacts-logo-356.png"
       inkscape:connector-curvature="0"
       id="path8015"
       d="m 41,28 0,76 2,0 4e-6,-76 z"
       style="fill:#ff0000;fill-opacity:1;fill-rule:nonzero;stroke:none"
       sodipodi:nodetypes="ccccc" />
    <path
       inkscape:export-ydpi="180"
       inkscape:export-xdpi="180"
       inkscape:export-filename="C:\Users\Stéphane\Desktop\Blogs\OpenFoodFacts\openfoodfacts-logo-356.png"
       inkscape:connector-curvature="0"
       id="path8017"
       d="m 37,35 0,69 3,0 0,-69 z"
       style="fill:#ff0000;fill-opacity:1;fill-rule:nonzero;stroke:none"
       sodipodi:nodetypes="ccccc" />
    <path
       inkscape:export-ydpi="180"
       inkscape:export-xdpi="180"
       inkscape:export-filename="C:\Users\Stéphane\Desktop\Blogs\OpenFoodFacts\openfoodfacts-logo-356.png"
       inkscape:connector-curvature="0"
       id="path8019"
       d="m 33,35 0,69 3,0 -5e-6,-69 z"
       style="fill:#ff0000;fill-opacity:1;fill-rule:nonzero;stroke:none"
       sodipodi:nodetypes="ccccc" />
    <path
       inkscape:export-ydpi="180"
       inkscape:export-xdpi="180"
       inkscape:export-filename="C:\Users\Stéphane\Desktop\Blogs\OpenFoodFacts\openfoodfacts-logo-356.png"
       inkscape:connector-curvature="0"
       id="path8021"
       d="m 30,29 0,75 2,0 -8.6e-5,-75 z"
       style="fill:#ff0000;fill-opacity:1;fill-rule:nonzero;stroke:none"
       sodipodi:nodetypes="ccccc" />
    <path
       inkscape:export-ydpi="180"
       inkscape:export-xdpi="180"
       inkscape:export-filename="C:\Users\Stéphane\Desktop\Blogs\OpenFoodFacts\openfoodfacts-logo-356.png"
       inkscape:connector-curvature="0"
       id="path8023"
       d="m 26,30 0,74 3,0 -3.5e-5,-74 z"
       style="fill:#ff0000;fill-opacity:1;fill-rule:nonzero;stroke:none"
       sodipodi:nodetypes="ccccc" />
    <path
       inkscape:export-ydpi="180"
       inkscape:export-xdpi="180"
       inkscape:export-filename="C:\Users\Stéphane\Desktop\Blogs\OpenFoodFacts\openfoodfacts-logo-356.png"
       inkscape:connector-curvature="0"
       id="path8025"
       d="m 22,35 0,69 1,0 -4.9e-5,-69 z"
       style="fill:#ff0000;fill-opacity:1;fill-rule:nonzero;stroke:none"
       sodipodi:nodetypes="ccccc" />
    <path
       inkscape:export-ydpi="180"
       inkscape:export-xdpi="180"
       inkscape:export-filename="C:\Users\Stéphane\Desktop\Blogs\OpenFoodFacts\openfoodfacts-logo-356.png"
       inkscape:connector-curvature="0"
       id="path8027"
       d="m 19,35 0,69 1,0 0,-69 z"
       style="fill:#ff0000;fill-opacity:1;fill-rule:nonzero;stroke:none"
       sodipodi:nodetypes="ccccc" />
    <path
       inkscape:export-ydpi="180"
       inkscape:export-xdpi="180"
       inkscape:export-filename="C:\Users\Stéphane\Desktop\Blogs\OpenFoodFacts\openfoodfacts-logo-356.png"
       inkscape:connector-curvature="0"
       id="path8029"
       d="m 14,35 0,69 0.999563,0 0,-69 z"
       style="fill:#ff0000;fill-opacity:1;fill-rule:nonzero;stroke:none"
       sodipodi:nodetypes="ccccc" />
    <path
       inkscape:export-ydpi="180"
       inkscape:export-xdpi="180"
       inkscape:export-filename="C:\Users\Stéphane\Desktop\Blogs\OpenFoodFacts\openfoodfacts-logo-356.png"
       inkscape:connector-curvature="0"
       id="path8031"
       d="m 11.000013,35 0,69 2,0 0,-69 z"
       style="fill:#ff0000;fill-opacity:1;fill-rule:nonzero;stroke:none"
       sodipodi:nodetypes="ccccc" />
    <path
       sodipodi:nodetypes="csssacccccssscccsccccc"
       inkscape:connector-curvature="0"
       id="path8033"
       d="m 23.96037,29.168037 c 0.62972,-0.815576 0.719123,-2.676154 1.281409,-4.358843 0.405305,-1.212926 0.463533,-4.596987 1.208651,-4.882429 0.96834,-0.370951 3.169601,-0.358079 4.223988,-0.416629 2.300059,-0.127699 4.518931,1.098659 6.822539,1.101136 2.990853,0.0036 8.861008,-1.410596 8.861008,-1.410596 l -0.140119,-2.038826 1.505607,0.278059 4.07695,-0.516905 -3.008404,1.386137 c 0,0 1.201864,-0.02108 1.688022,0.276832 0.705048,0.432109 0.959994,1.347377 1.46892,1.999162 0.291967,0.373928 1.082477,0.65438 0.908337,1.095671 -0.469844,1.190611 -3.808977,0.485944 -3.808977,0.485944 l -1.918736,1.803326 c -0.833009,1.778987 -2.26137,3.261839 -2.253596,6.722383 0,0 -6.006891,-0.923008 -8.991183,-0.79663 -1.764007,0.07466 -4.968974,0.618073 -4.968974,0.618073 -1.608718,-0.13719 -3.296502,-0.529063 -4.905219,-0.24954 0.0095,-6.235485 0.866683,-6.128862 0.69876,-9.294821 -0.439183,1.679986 -0.971056,4.516551 -1.026843,5.772464 -0.534756,1.525804 -0.01191,1.899672 -1.72214,2.426032 z"
       style="fill:#ff0000;fill-opacity:1"
       inkscape:export-filename="C:\Users\Stéphane\Desktop\Blogs\OpenFoodFacts\openfoodfacts-logo-356.png"
       inkscape:export-xdpi="180"
       inkscape:export-ydpi="180" />
    <g
       style="fill:#ffcc00"
       transform="matrix(0.01488015,-0.01147672,0.01147672,0.01488015,50.17529,16.567521)"
       id="g8035"
       inkscape:export-filename="C:\Users\Stéphane\Desktop\Blogs\OpenFoodFacts\openfoodfacts-logo-356.png"
       inkscape:export-xdpi="180"
       inkscape:export-ydpi="180">
      <path
         sodipodi:type="arc"
         style="fill:#ffcc00;fill-opacity:1;stroke:none"
         id="path8037"
         sodipodi:cx="567.14288"
         sodipodi:cy="762.36218"
         sodipodi:rx="65.714287"
         sodipodi:ry="32.857143"
         d="m 632.85717,762.36218 c 0,18.1465 -29.42129,32.85715 -65.71429,32.85715 -36.293,0 -65.71428,-14.71065 -65.71428,-32.85715 0,-18.1465 29.42128,-32.85714 65.71428,-32.85714 36.293,0 65.71429,14.71064 65.71429,32.85714 z"
         transform="matrix(0.58270937,-0.81268061,0.81268061,0.58270937,-465.7507,809.03262)" />
      <path
         style="fill:#ffcc00;fill-opacity:1;stroke:none"
         d="m 494.28571,741.6479 c 0,0 14.40901,-2.31616 20.71429,-5.71428 22.08801,-11.90395 53.57143,-52.85715 53.57143,-52.85715 0,0 -33.14169,43.13867 -40,64.99999 -2.07174,6.60382 -1.42857,20.71429 -1.42857,20.71429 z"
         id="path8039"
         inkscape:connector-curvature="0"
         sodipodi:nodetypes="cscscc" />
    </g>
    <g
       transform="matrix(0.89458574,0,0,0.89458574,-457.13007,-635.42698)"
       id="g8041"
       inkscape:export-filename="C:\Users\Stéphane\Desktop\Blogs\OpenFoodFacts\openfoodfacts-logo-356.png"
       inkscape:export-xdpi="180"
       inkscape:export-ydpi="180">
      <g
         id="g8043"
         transform="translate(-9.5459416,1.1490485)"
         style="fill:#ffcc00">
        <g
           transform="matrix(0.02100622,0,0,0.02100622,586.13922,725.53281)"
           id="g8045"
           style="fill:#ffcc00">
          <path
             sodipodi:type="arc"
             style="fill:#ffcc00;fill-opacity:1;stroke:none"
             id="path8047"
             sodipodi:cx="567.14288"
             sodipodi:cy="762.36218"
             sodipodi:rx="65.714287"
             sodipodi:ry="32.857143"
             d="m 632.85717,762.36218 c 0,18.1465 -29.42129,32.85715 -65.71429,32.85715 -36.293,0 -65.71428,-14.71065 -65.71428,-32.85715 0,-18.1465 29.42128,-32.85714 65.71428,-32.85714 36.293,0 65.71429,14.71064 65.71429,32.85714 z"
             transform="matrix(0.58270937,-0.81268061,0.81268061,0.58270937,-465.7507,809.03262)" />
          <path
             style="fill:#ffcc00;fill-opacity:1;stroke:none"
             d="m 494.28571,741.6479 c 0,0 14.40901,-2.31616 20.71429,-5.71428 22.08801,-11.90395 53.57143,-52.85715 53.57143,-52.85715 0,0 -33.14169,43.13867 -40,64.99999 -2.07174,6.60382 -1.42857,20.71429 -1.42857,20.71429 z"
             id="path8049"
             inkscape:connector-curvature="0"
             sodipodi:nodetypes="cscscc" />
        </g>
        <g
           transform="matrix(0.02100622,0,0,0.02100622,586.13922,727.5359)"
           id="g8051"
           style="fill:#ffcc00">
          <path
             sodipodi:type="arc"
             style="fill:#ffcc00;fill-opacity:1;stroke:none"
             id="path8053"
             sodipodi:cx="567.14288"
             sodipodi:cy="762.36218"
             sodipodi:rx="65.714287"
             sodipodi:ry="32.857143"
             d="m 632.85717,762.36218 c 0,18.1465 -29.42129,32.85715 -65.71429,32.85715 -36.293,0 -65.71428,-14.71065 -65.71428,-32.85715 0,-18.1465 29.42128,-32.85714 65.71428,-32.85714 36.293,0 65.71429,14.71064 65.71429,32.85714 z"
             transform="matrix(0.58270937,-0.81268061,0.81268061,0.58270937,-465.7507,809.03262)" />
          <path
             style="fill:#ffcc00;fill-opacity:1;stroke:none"
             d="m 494.28571,741.6479 c 0,0 14.40901,-2.31616 20.71429,-5.71428 22.08801,-11.90395 53.57143,-52.85715 53.57143,-52.85715 0,0 -33.14169,43.13867 -40,64.99999 -2.07174,6.60382 -1.42857,20.71429 -1.42857,20.71429 z"
             id="path8055"
             inkscape:connector-curvature="0"
             sodipodi:nodetypes="cscscc" />
        </g>
        <g
           transform="matrix(0.02100622,0,0,0.02100622,586.13922,723.52972)"
           id="g8057"
           style="fill:#ffcc00">
          <path
             sodipodi:type="arc"
             style="fill:#ffcc00;fill-opacity:1;stroke:none"
             id="path8059"
             sodipodi:cx="567.14288"
             sodipodi:cy="762.36218"
             sodipodi:rx="65.714287"
             sodipodi:ry="32.857143"
             d="m 632.85717,762.36218 c 0,18.1465 -29.42129,32.85715 -65.71429,32.85715 -36.293,0 -65.71428,-14.71065 -65.71428,-32.85715 0,-18.1465 29.42128,-32.85714 65.71428,-32.85714 36.293,0 65.71429,14.71064 65.71429,32.85714 z"
             transform="matrix(0.58270937,-0.81268061,0.81268061,0.58270937,-465.7507,809.03262)" />
          <path
             style="fill:#ffcc00;fill-opacity:1;stroke:none"
             d="m 494.28571,741.6479 c 0,0 14.40901,-2.31616 20.71429,-5.71428 22.08801,-11.90395 53.57143,-52.85715 53.57143,-52.85715 0,0 -33.14169,43.13867 -40,64.99999 -2.07174,6.60382 -1.42857,20.71429 -1.42857,20.71429 z"
             id="path8061"
             inkscape:connector-curvature="0"
             sodipodi:nodetypes="cscscc" />
        </g>
        <g
           transform="matrix(0.02100622,0,0,0.02100622,586.13922,721.52662)"
           id="g8063"
           style="fill:#ffcc00">
          <path
             sodipodi:type="arc"
             style="fill:#ffcc00;fill-opacity:1;stroke:none"
             id="path8065"
             sodipodi:cx="567.14288"
             sodipodi:cy="762.36218"
             sodipodi:rx="65.714287"
             sodipodi:ry="32.857143"
             d="m 632.85717,762.36218 c 0,18.1465 -29.42129,32.85715 -65.71429,32.85715 -36.293,0 -65.71428,-14.71065 -65.71428,-32.85715 0,-18.1465 29.42128,-32.85714 65.71428,-32.85714 36.293,0 65.71429,14.71064 65.71429,32.85714 z"
             transform="matrix(0.58270937,-0.81268061,0.81268061,0.58270937,-465.7507,809.03262)" />
          <path
             style="fill:#ffcc00;fill-opacity:1;stroke:none"
             d="m 494.28571,741.6479 c 0,0 14.40901,-2.31616 20.71429,-5.71428 22.08801,-11.90395 53.57143,-52.85715 53.57143,-52.85715 0,0 -33.14169,43.13867 -40,64.99999 -2.07174,6.60382 -1.42857,20.71429 -1.42857,20.71429 z"
             id="path8067"
             inkscape:connector-curvature="0"
             sodipodi:nodetypes="cscscc" />
        </g>
        <g
           transform="matrix(0.02064274,-0.0038908,0.0038908,0.02064274,583.1049,721.64932)"
           id="g8069"
           style="fill:#ffcc00">
          <path
             sodipodi:type="arc"
             style="fill:#ffcc00;fill-opacity:1;stroke:none"
             id="path8071"
             sodipodi:cx="567.14288"
             sodipodi:cy="762.36218"
             sodipodi:rx="65.714287"
             sodipodi:ry="32.857143"
             d="m 632.85717,762.36218 c 0,18.1465 -29.42129,32.85715 -65.71429,32.85715 -36.293,0 -65.71428,-14.71065 -65.71428,-32.85715 0,-18.1465 29.42128,-32.85714 65.71428,-32.85714 36.293,0 65.71429,14.71064 65.71429,32.85714 z"
             transform="matrix(0.58270937,-0.81268061,0.81268061,0.58270937,-465.7507,809.03262)" />
          <path
             style="fill:#ffcc00;fill-opacity:1;stroke:none"
             d="m 494.28571,741.6479 c 0,0 14.40901,-2.31616 20.71429,-5.71428 22.08801,-11.90395 53.57143,-52.85715 53.57143,-52.85715 0,0 -33.14169,43.13867 -40,64.99999 -2.07174,6.60382 -1.42857,20.71429 -1.42857,20.71429 z"
             id="path8073"
             inkscape:connector-curvature="0"
             sodipodi:nodetypes="cscscc" />
        </g>
      </g>
      <g
         id="g8075"
         style="fill:#ffcc00"
         transform="translate(-10.253048,1.1490485)">
        <g
           transform="matrix(-0.02100622,0,0,0.02100622,604.26937,725.53281)"
           id="g8077"
           style="fill:#ffcc00">
          <path
             sodipodi:type="arc"
             style="fill:#ffcc00;fill-opacity:1;stroke:none"
             id="path8079"
             sodipodi:cx="567.14288"
             sodipodi:cy="762.36218"
             sodipodi:rx="65.714287"
             sodipodi:ry="32.857143"
             d="m 632.85717,762.36218 c 0,18.1465 -29.42129,32.85715 -65.71429,32.85715 -36.293,0 -65.71428,-14.71065 -65.71428,-32.85715 0,-18.1465 29.42128,-32.85714 65.71428,-32.85714 36.293,0 65.71429,14.71064 65.71429,32.85714 z"
             transform="matrix(0.58270937,-0.81268061,0.81268061,0.58270937,-465.7507,809.03262)" />
          <path
             style="fill:#ffcc00;fill-opacity:1;stroke:none"
             d="m 494.28571,741.6479 c 0,0 14.40901,-2.31616 20.71429,-5.71428 22.08801,-11.90395 53.57143,-52.85715 53.57143,-52.85715 0,0 -33.14169,43.13867 -40,64.99999 -2.07174,6.60382 -1.42857,20.71429 -1.42857,20.71429 z"
             id="path8081"
             inkscape:connector-curvature="0"
             sodipodi:nodetypes="cscscc" />
        </g>
        <g
           transform="matrix(-0.02100622,0,0,0.02100622,604.26938,727.5359)"
           id="g8083"
           style="fill:#ffcc00">
          <path
             sodipodi:type="arc"
             style="fill:#ffcc00;fill-opacity:1;stroke:none"
             id="path8085"
             sodipodi:cx="567.14288"
             sodipodi:cy="762.36218"
             sodipodi:rx="65.714287"
             sodipodi:ry="32.857143"
             d="m 632.85717,762.36218 c 0,18.1465 -29.42129,32.85715 -65.71429,32.85715 -36.293,0 -65.71428,-14.71065 -65.71428,-32.85715 0,-18.1465 29.42128,-32.85714 65.71428,-32.85714 36.293,0 65.71429,14.71064 65.71429,32.85714 z"
             transform="matrix(0.58270937,-0.81268061,0.81268061,0.58270937,-465.7507,809.03262)" />
          <path
             style="fill:#ffcc00;fill-opacity:1;stroke:none"
             d="m 494.28571,741.6479 c 0,0 14.40901,-2.31616 20.71429,-5.71428 22.08801,-11.90395 53.57143,-52.85715 53.57143,-52.85715 0,0 -33.14169,43.13867 -40,64.99999 -2.07174,6.60382 -1.42857,20.71429 -1.42857,20.71429 z"
             id="path8087"
             inkscape:connector-curvature="0"
             sodipodi:nodetypes="cscscc" />
        </g>
        <g
           transform="matrix(-0.02100622,0,0,0.02100622,604.26938,723.52972)"
           id="g8089"
           style="fill:#ffcc00">
          <path
             sodipodi:type="arc"
             style="fill:#ffcc00;fill-opacity:1;stroke:none"
             id="path8091"
             sodipodi:cx="567.14288"
             sodipodi:cy="762.36218"
             sodipodi:rx="65.714287"
             sodipodi:ry="32.857143"
             d="m 632.85717,762.36218 c 0,18.1465 -29.42129,32.85715 -65.71429,32.85715 -36.293,0 -65.71428,-14.71065 -65.71428,-32.85715 0,-18.1465 29.42128,-32.85714 65.71428,-32.85714 36.293,0 65.71429,14.71064 65.71429,32.85714 z"
             transform="matrix(0.58270937,-0.81268061,0.81268061,0.58270937,-465.7507,809.03262)" />
          <path
             style="fill:#ffcc00;fill-opacity:1;stroke:none"
             d="m 494.28571,741.6479 c 0,0 14.40901,-2.31616 20.71429,-5.71428 22.08801,-11.90395 53.57143,-52.85715 53.57143,-52.85715 0,0 -33.14169,43.13867 -40,64.99999 -2.07174,6.60382 -1.42857,20.71429 -1.42857,20.71429 z"
             id="path8093"
             inkscape:connector-curvature="0"
             sodipodi:nodetypes="cscscc" />
        </g>
        <g
           transform="matrix(-0.02100622,0,0,0.02100622,604.26937,721.52662)"
           id="g8095"
           style="fill:#ffcc00">
          <path
             sodipodi:type="arc"
             style="fill:#ffcc00;fill-opacity:1;stroke:none"
             id="path8097"
             sodipodi:cx="567.14288"
             sodipodi:cy="762.36218"
             sodipodi:rx="65.714287"
             sodipodi:ry="32.857143"
             d="m 632.85717,762.36218 c 0,18.1465 -29.42129,32.85715 -65.71429,32.85715 -36.293,0 -65.71428,-14.71065 -65.71428,-32.85715 0,-18.1465 29.42128,-32.85714 65.71428,-32.85714 36.293,0 65.71429,14.71064 65.71429,32.85714 z"
             transform="matrix(0.58270937,-0.81268061,0.81268061,0.58270937,-465.7507,809.03262)" />
          <path
             style="fill:#ffcc00;fill-opacity:1;stroke:none"
             d="m 494.28571,741.6479 c 0,0 14.40901,-2.31616 20.71429,-5.71428 22.08801,-11.90395 53.57143,-52.85715 53.57143,-52.85715 0,0 -33.14169,43.13867 -40,64.99999 -2.07174,6.60382 -1.42857,20.71429 -1.42857,20.71429 z"
             id="path8099"
             inkscape:connector-curvature="0"
             sodipodi:nodetypes="cscscc" />
        </g>
        <g
           transform="matrix(-0.02064274,-0.0038908,-0.0038908,0.02064274,607.30369,721.64932)"
           id="g8101"
           style="fill:#ffcc00">
          <path
             sodipodi:type="arc"
             style="fill:#ffcc00;fill-opacity:1;stroke:none"
             id="path8103"
             sodipodi:cx="567.14288"
             sodipodi:cy="762.36218"
             sodipodi:rx="65.714287"
             sodipodi:ry="32.857143"
             d="m 632.85717,762.36218 c 0,18.1465 -29.42129,32.85715 -65.71429,32.85715 -36.293,0 -65.71428,-14.71065 -65.71428,-32.85715 0,-18.1465 29.42128,-32.85714 65.71428,-32.85714 36.293,0 65.71429,14.71064 65.71429,32.85714 z"
             transform="matrix(0.58270937,-0.81268061,0.81268061,0.58270937,-465.7507,809.03262)" />
          <path
             style="fill:#ffcc00;fill-opacity:1;stroke:none"
             d="m 494.28571,741.6479 c 0,0 14.40901,-2.31616 20.71429,-5.71428 22.08801,-11.90395 53.57143,-52.85715 53.57143,-52.85715 0,0 -33.14169,43.13867 -40,64.99999 -2.07174,6.60382 -1.42857,20.71429 -1.42857,20.71429 z"
             id="path8105"
             inkscape:connector-curvature="0"
             sodipodi:nodetypes="cscscc" />
        </g>
      </g>
    </g>
    <g
       id="g8107"
       transform="matrix(0.485552,-0.55754244,0.55754244,0.485552,-605.03955,6.4228897)"
       inkscape:export-filename="C:\Users\Stéphane\Desktop\Blogs\OpenFoodFacts\openfoodfacts-logo-356.png"
       inkscape:export-xdpi="180"
       inkscape:export-ydpi="180">
      <path
         sodipodi:type="arc"
         style="fill:#ffcc00;fill-opacity:1"
         id="path8109"
         sodipodi:cx="608"
         sodipodi:cy="732.36218"
         sodipodi:rx="2.5"
         sodipodi:ry="2.5"
         d="m 610.5,732.36218 c 0,1.38071 -1.11929,2.5 -2.5,2.5 -1.38071,0 -2.5,-1.11929 -2.5,-2.5 0,-1.38071 1.11929,-2.5 2.5,-2.5 1.38071,0 2.5,1.11929 2.5,2.5 z"
         transform="translate(1.5,9.75)" />
      <path
         d="m 610.5,732.36218 c 0,1.38071 -1.11929,2.5 -2.5,2.5 -1.38071,0 -2.5,-1.11929 -2.5,-2.5 0,-1.38071 1.11929,-2.5 2.5,-2.5 1.38071,0 2.5,1.11929 2.5,2.5 z"
         sodipodi:ry="2.5"
         sodipodi:rx="2.5"
         sodipodi:cy="732.36218"
         sodipodi:cx="608"
         id="path8111"
         style="fill:#ffcc00;fill-opacity:1"
         sodipodi:type="arc"
         inkscape:transform-center-x="-3.1501887"
         inkscape:transform-center-y="-1.6050895"
         transform="matrix(0.30901699,-0.95105652,0.95105652,0.30901699,-274.24997,1089.9371)" />
      <path
         transform="matrix(-0.809017,-0.58778525,0.58778525,-0.809017,667.85758,1685.9871)"
         inkscape:transform-center-y="-3.4919705"
         inkscape:transform-center-x="0.5530674"
         sodipodi:type="arc"
         style="fill:#ffcc00;fill-opacity:1"
         id="path8113"
         sodipodi:cx="608"
         sodipodi:cy="732.36218"
         sodipodi:rx="2.5"
         sodipodi:ry="2.5"
         d="m 610.5,732.36218 c 0,1.38071 -1.11929,2.5 -2.5,2.5 -1.38071,0 -2.5,-1.11929 -2.5,-2.5 0,-1.38071 1.11929,-2.5 2.5,-2.5 1.38071,0 2.5,1.11929 2.5,2.5 z" />
      <path
         d="m 610.5,732.36218 c 0,1.38071 -1.11929,2.5 -2.5,2.5 -1.38071,0 -2.5,-1.11929 -2.5,-2.5 0,-1.38071 1.11929,-2.5 2.5,-2.5 1.38071,0 2.5,1.11929 2.5,2.5 z"
         sodipodi:ry="2.5"
         sodipodi:rx="2.5"
         sodipodi:cy="732.36218"
         sodipodi:cx="608"
         id="path8115"
         style="fill:#ffcc00;fill-opacity:1"
         sodipodi:type="arc"
         inkscape:transform-center-x="3.4919258"
         inkscape:transform-center-y="-0.5530731"
         transform="matrix(-0.80901699,0.58778526,-0.58778526,-0.80901699,1525.8621,974.17912)" />
      <path
         transform="matrix(0.309017,0.95105651,-0.95105651,0.309017,1114.0304,-61.792435)"
         inkscape:transform-center-y="3.1501051"
         inkscape:transform-center-x="1.6050854"
         sodipodi:type="arc"
         style="fill:#ffcc00;fill-opacity:1"
         id="path8117"
         sodipodi:cx="608"
         sodipodi:cy="732.36218"
         sodipodi:rx="2.5"
         sodipodi:ry="2.5"
         d="m 610.5,732.36218 c 0,1.38071 -1.11929,2.5 -2.5,2.5 -1.38071,0 -2.5,-1.11929 -2.5,-2.5 0,-1.38071 1.11929,-2.5 2.5,-2.5 1.38071,0 2.5,1.11929 2.5,2.5 z" />
    </g>
    <g
       transform="matrix(-0.6491698,-0.35382606,0.35382606,-0.6491698,229.16484,711.9075)"
       id="g8119"
       inkscape:export-filename="C:\Users\Stéphane\Desktop\Blogs\OpenFoodFacts\openfoodfacts-logo-356.png"
       inkscape:export-xdpi="180"
       inkscape:export-ydpi="180">
      <path
         transform="translate(1.5,9.75)"
         d="m 610.5,732.36218 c 0,1.38071 -1.11929,2.5 -2.5,2.5 -1.38071,0 -2.5,-1.11929 -2.5,-2.5 0,-1.38071 1.11929,-2.5 2.5,-2.5 1.38071,0 2.5,1.11929 2.5,2.5 z"
         sodipodi:ry="2.5"
         sodipodi:rx="2.5"
         sodipodi:cy="732.36218"
         sodipodi:cx="608"
         id="path8121"
         style="fill:#ffcc00;fill-opacity:1"
         sodipodi:type="arc" />
      <path
         transform="matrix(0.30901699,-0.95105652,0.95105652,0.30901699,-274.24997,1089.9371)"
         inkscape:transform-center-y="-1.6050895"
         inkscape:transform-center-x="-3.1501887"
         sodipodi:type="arc"
         style="fill:#ffcc00;fill-opacity:1"
         id="path8123"
         sodipodi:cx="608"
         sodipodi:cy="732.36218"
         sodipodi:rx="2.5"
         sodipodi:ry="2.5"
         d="m 610.5,732.36218 c 0,1.38071 -1.11929,2.5 -2.5,2.5 -1.38071,0 -2.5,-1.11929 -2.5,-2.5 0,-1.38071 1.11929,-2.5 2.5,-2.5 1.38071,0 2.5,1.11929 2.5,2.5 z" />
      <path
         d="m 610.5,732.36218 c 0,1.38071 -1.11929,2.5 -2.5,2.5 -1.38071,0 -2.5,-1.11929 -2.5,-2.5 0,-1.38071 1.11929,-2.5 2.5,-2.5 1.38071,0 2.5,1.11929 2.5,2.5 z"
         sodipodi:ry="2.5"
         sodipodi:rx="2.5"
         sodipodi:cy="732.36218"
         sodipodi:cx="608"
         id="path8125"
         style="fill:#ffcc00;fill-opacity:1"
         sodipodi:type="arc"
         inkscape:transform-center-x="0.5530674"
         inkscape:transform-center-y="-3.4919705"
         transform="matrix(-0.809017,-0.58778525,0.58778525,-0.809017,667.85758,1685.9871)" />
      <path
         transform="matrix(-0.80901699,0.58778526,-0.58778526,-0.80901699,1525.8621,974.17912)"
         inkscape:transform-center-y="-0.5530731"
         inkscape:transform-center-x="3.4919258"
         sodipodi:type="arc"
         style="fill:#ffcc00;fill-opacity:1"
         id="path8127"
         sodipodi:cx="608"
         sodipodi:cy="732.36218"
         sodipodi:rx="2.5"
         sodipodi:ry="2.5"
         d="m 610.5,732.36218 c 0,1.38071 -1.11929,2.5 -2.5,2.5 -1.38071,0 -2.5,-1.11929 -2.5,-2.5 0,-1.38071 1.11929,-2.5 2.5,-2.5 1.38071,0 2.5,1.11929 2.5,2.5 z" />
      <path
         d="m 610.5,732.36218 c 0,1.38071 -1.11929,2.5 -2.5,2.5 -1.38071,0 -2.5,-1.11929 -2.5,-2.5 0,-1.38071 1.11929,-2.5 2.5,-2.5 1.38071,0 2.5,1.11929 2.5,2.5 z"
         sodipodi:ry="2.5"
         sodipodi:rx="2.5"
         sodipodi:cy="732.36218"
         sodipodi:cx="608"
         id="path8129"
         style="fill:#ffcc00;fill-opacity:1"
         sodipodi:type="arc"
         inkscape:transform-center-x="1.6050854"
         inkscape:transform-center-y="3.1501051"
         transform="matrix(0.309017,0.95105651,-0.95105651,0.309017,1114.0304,-61.792435)" />
    </g>
    <g
       id="g8131"
       transform="matrix(0.31450273,-0.66910564,0.66910564,0.31450273,-599.58237,199.80877)"
       inkscape:export-filename="C:\Users\Stéphane\Desktop\Blogs\OpenFoodFacts\openfoodfacts-logo-356.png"
       inkscape:export-xdpi="180"
       inkscape:export-ydpi="180">
      <path
         sodipodi:type="arc"
         style="fill:#ffcc00;fill-opacity:1"
         id="path8133"
         sodipodi:cx="608"
         sodipodi:cy="732.36218"
         sodipodi:rx="2.5"
         sodipodi:ry="2.5"
         d="m 610.5,732.36218 c 0,1.38071 -1.11929,2.5 -2.5,2.5 -1.38071,0 -2.5,-1.11929 -2.5,-2.5 0,-1.38071 1.11929,-2.5 2.5,-2.5 1.38071,0 2.5,1.11929 2.5,2.5 z"
         transform="translate(1.5,9.75)" />
      <path
         d="m 610.5,732.36218 c 0,1.38071 -1.11929,2.5 -2.5,2.5 -1.38071,0 -2.5,-1.11929 -2.5,-2.5 0,-1.38071 1.11929,-2.5 2.5,-2.5 1.38071,0 2.5,1.11929 2.5,2.5 z"
         sodipodi:ry="2.5"
         sodipodi:rx="2.5"
         sodipodi:cy="732.36218"
         sodipodi:cx="608"
         id="path8135"
         style="fill:#ffcc00;fill-opacity:1"
         sodipodi:type="arc"
         inkscape:transform-center-x="-3.1501887"
         inkscape:transform-center-y="-1.6050895"
         transform="matrix(0.30901699,-0.95105652,0.95105652,0.30901699,-274.24997,1089.9371)" />
      <path
         transform="matrix(-0.809017,-0.58778525,0.58778525,-0.809017,667.85758,1685.9871)"
         inkscape:transform-center-y="-3.4919705"
         inkscape:transform-center-x="0.5530674"
         sodipodi:type="arc"
         style="fill:#ffcc00;fill-opacity:1"
         id="path8137"
         sodipodi:cx="608"
         sodipodi:cy="732.36218"
         sodipodi:rx="2.5"
         sodipodi:ry="2.5"
         d="m 610.5,732.36218 c 0,1.38071 -1.11929,2.5 -2.5,2.5 -1.38071,0 -2.5,-1.11929 -2.5,-2.5 0,-1.38071 1.11929,-2.5 2.5,-2.5 1.38071,0 2.5,1.11929 2.5,2.5 z" />
      <path
         d="m 610.5,732.36218 c 0,1.38071 -1.11929,2.5 -2.5,2.5 -1.38071,0 -2.5,-1.11929 -2.5,-2.5 0,-1.38071 1.11929,-2.5 2.5,-2.5 1.38071,0 2.5,1.11929 2.5,2.5 z"
         sodipodi:ry="2.5"
         sodipodi:rx="2.5"
         sodipodi:cy="732.36218"
         sodipodi:cx="608"
         id="path8139"
         style="fill:#ffcc00;fill-opacity:1"
         sodipodi:type="arc"
         inkscape:transform-center-x="3.4919258"
         inkscape:transform-center-y="-0.5530731"
         transform="matrix(-0.80901699,0.58778526,-0.58778526,-0.80901699,1525.8621,974.17912)" />
      <path
         transform="matrix(0.309017,0.95105651,-0.95105651,0.309017,1114.0304,-61.792435)"
         inkscape:transform-center-y="3.1501051"
         inkscape:transform-center-x="1.6050854"
         sodipodi:type="arc"
         style="fill:#ffcc00;fill-opacity:1"
         id="path8141"
         sodipodi:cx="608"
         sodipodi:cy="732.36218"
         sodipodi:rx="2.5"
         sodipodi:ry="2.5"
         d="m 610.5,732.36218 c 0,1.38071 -1.11929,2.5 -2.5,2.5 -1.38071,0 -2.5,-1.11929 -2.5,-2.5 0,-1.38071 1.11929,-2.5 2.5,-2.5 1.38071,0 2.5,1.11929 2.5,2.5 z" />
    </g>
    <path
       style="fill:#00d400;fill-opacity:1;fill-rule:nonzero;stroke:none"
       d="M 133.44657,15.33728 C 142.63587,16.287033 146.07702,23.767884 146,37 l 2.96392,-1.398609 c 0,-1.461895 -0.0255,-1.249361 -0.0255,-2.711244 0,-10.866897 -6.40398,-17.274677 -10.91182,-18.343579 z"
       id="path8143"
       inkscape:connector-curvature="0"
       inkscape:export-filename="C:\Users\Stéphane\Desktop\Blogs\OpenFoodFacts\openfoodfacts-logo-356.png"
       inkscape:export-xdpi="180"
       inkscape:export-ydpi="180"
       sodipodi:nodetypes="cccscc" />
    <g
       transform="matrix(0.89458574,0,0,0.89458574,-457.09845,-635.42698)"
       id="g8145"
       inkscape:export-filename="C:\Users\Stéphane\Desktop\Blogs\OpenFoodFacts\openfoodfacts-logo-356.png"
       inkscape:export-xdpi="180"
       inkscape:export-ydpi="180">
      <g
         transform="translate(-0.6875,-0.0625)"
         id="g8147">
        <path
           sodipodi:nodetypes="ccc"
           inkscape:connector-curvature="0"
           id="path8149"
           d="m 646.11882,744.69741 c 9.98853,-2.85699 22.36057,-3.40732 20.1894,-18.03175 -19.13147,-9.00363 -12.68327,7.89971 -20.1894,18.03175 z"
           style="fill:#00d400;stroke:none" />
        <path
           sodipodi:nodetypes="ccc"
           inkscape:connector-curvature="0"
           id="path8151"
           d="m 667.50879,725.1485 c -4.96993,6.86401 -15.79612,16.96445 -22.45063,19.97578 6.6817,-2.48508 19.65127,-12.66443 22.45063,-19.97578 z"
           style="fill:#ffffff;fill-opacity:1;stroke:none" />
      </g>
    </g>
    <g
       id="g8153"
       transform="matrix(0.73729109,0.50664139,0.50664139,-0.73729109,-717.9281,208.42539)"
       inkscape:export-filename="C:\Users\Stéphane\Desktop\Blogs\OpenFoodFacts\openfoodfacts-logo-356.png"
       inkscape:export-xdpi="180"
       inkscape:export-ydpi="180">
      <g
         transform="matrix(-0.85351374,-0.52107033,0.52107033,-0.85351374,864.58887,1695.2445)"
         id="g8155">
        <g
           transform="translate(-0.6875,-0.0625)"
           id="g8157">
          <path
             sodipodi:nodetypes="ccc"
             inkscape:connector-curvature="0"
             id="path8159"
             d="m 646.11882,744.69741 c 9.98853,-2.85699 22.36057,-3.40732 20.1894,-18.03175 -19.99874,-7.24796 -12.68327,7.89971 -20.1894,18.03175 z"
             style="fill:#00d400;stroke:none" />
          <path
             sodipodi:nodetypes="ccc"
             inkscape:connector-curvature="0"
             id="path8161"
             d="m 667.50879,725.1485 c -4.96993,6.86401 -15.79612,16.96445 -22.45063,19.97578 6.6817,-2.48508 19.65127,-12.66443 22.45063,-19.97578 z"
             style="fill:#ffffff;fill-opacity:1;stroke:none" />
        </g>
      </g>
    </g>
    <path
       sodipodi:nodetypes="cccscc"
       inkscape:export-ydpi="180"
       inkscape:export-xdpi="180"
       inkscape:export-filename="C:\Users\Stéphane\Desktop\Blogs\OpenFoodFacts\openfoodfacts-logo-356.png"
       inkscape:connector-curvature="0"
       id="path8163"
       d="M 148.87818,13.60402 C 146.88514,15.168809 146.07702,23.767884 146,37 l 2.96392,-1.398609 c 0,-1.461895 0.0361,1.860492 0.0361,0.398609 0,-10.866897 0.85886,-19.322201 1.21536,-21.117966 z"
       style="fill:#00d400;fill-opacity:1;fill-rule:nonzero;stroke:none" />
    <path
       inkscape:export-ydpi="180"
       inkscape:export-xdpi="180"
       inkscape:export-filename="C:\Users\Stéphane\Desktop\Blogs\OpenFoodFacts\openfoodfacts-logo-356.png"
       transform="matrix(0.89458574,0,0,0.89458574,-457.09845,-635.42698)"
       sodipodi:type="arc"
       style="fill:#00ccff;fill-opacity:1;stroke:none"
       id="path8165"
       sodipodi:cx="701.09637"
       sodipodi:cy="759.79675"
       sodipodi:rx="1.0606601"
       sodipodi:ry="1.0606601"
       d="m 702.15703,759.79675 a 1.0606601,1.0606601 0 1 1 -2.12132,0 1.0606601,1.0606601 0 1 1 2.12132,0 z" />
    <path
       sodipodi:nodetypes="cccccc"
       inkscape:export-ydpi="112.45"
       inkscape:export-xdpi="112.45"
       inkscape:export-filename="C:\Users\Stéphane\Desktop\Blogs\OpenFoodFacts\favicon.png"
       id="path8169"
       d="m 181.00004,127 0,5 c 2.66569,0 5.33424,0 7.99992,0 l 0,-5 c -2.66568,0 -5.33423,0 -7.99983,0 z"
       style="fill:#0066ff;fill-opacity:1;fill-rule:nonzero;stroke:none"
       inkscape:connector-curvature="0" />
    <path
       sodipodi:nodetypes="ccccc"
       inkscape:export-ydpi="112.45"
       inkscape:export-xdpi="112.45"
       inkscape:export-filename="C:\Users\Stéphane\Desktop\Blogs\OpenFoodFacts\favicon.png"
       id="path8171"
       d="m 165.00001,127 0,5 c 4.33407,0 8.6659,0 12.99997,0 l 0,-5 c -4.33407,0 -8.6659,0 -12.99997,0 z"
       style="fill:#00ccff;fill-opacity:1;fill-rule:nonzero;stroke:none"
       inkscape:connector-curvature="0" />
    <path
       sodipodi:nodetypes="ccccc"
       inkscape:export-ydpi="112.45"
       inkscape:export-xdpi="112.45"
       inkscape:export-filename="C:\Users\Stéphane\Desktop\Blogs\OpenFoodFacts\favicon.png"
       id="path8173"
       d="m 106,127 0,5 c 18.6596,0 37.34041,0 56.00004,0 l 0,-5 C 143.34041,127 124.6596,127 106,127 z"
       style="fill:#00d400;fill-opacity:1;fill-rule:nonzero;stroke:none"
       inkscape:connector-curvature="0" />
    <path
       sodipodi:nodetypes="ccccc"
       inkscape:export-ydpi="112.45"
       inkscape:export-xdpi="112.45"
       inkscape:export-filename="C:\Users\Stéphane\Desktop\Blogs\OpenFoodFacts\favicon.png"
       id="path8175"
       d="m 47.999996,127 0,5 c 18.333387,0 36.666623,0 55.000004,0 l 0,-5 c -18.333381,0 -36.666617,0 -55.000004,0 z"
       style="fill:#ffcc00;fill-opacity:1;fill-rule:nonzero;stroke:none"
       inkscape:connector-curvature="0" />
    <path
       sodipodi:nodetypes="ccccc"
       inkscape:export-ydpi="112.45"
       inkscape:export-xdpi="112.45"
       inkscape:export-filename="C:\Users\Stéphane\Desktop\Blogs\OpenFoodFacts\favicon.png"
       id="path8177"
       d="m 11,127 0,5 c 11.333706,0 22.666301,0 33.999997,0 l 0,-5 C 33.666301,127 22.333706,127 11,127 z"
       style="fill:#ff0000;fill-opacity:1;fill-rule:nonzero;stroke:none"
       inkscape:connector-curvature="0" />
    <g
       style="font-size:32.81705093px;font-style:normal;font-variant:normal;font-weight:normal;font-stretch:normal;line-height:125%;letter-spacing:0px;word-spacing:0px;fill:#333333;fill-opacity:1;stroke:none;font-family:Arial Narrow;-inkscape-font-specification:Arial Narrow"
       id="text8179"
       inkscape:export-filename="C:\Users\Stéphane\Desktop\Blogs\OpenFoodFacts\openfoodfacts-logo-356.png"
       inkscape:export-xdpi="180"
       inkscape:export-ydpi="180"
       transform="translate(11,11.637817)">
      <path
         inkscape:connector-curvature="0"
         d="m 0.29533203,104.18406 c -9.5e-7,-2.79573 0.61506181,-4.944723 1.84519007,-6.446982 1.2301228,-1.50223 2.7621882,-2.253352 4.5962009,-2.253369 1.1853862,1.7e-5 2.2664056,0.335506 3.2430614,1.006468 0.9766346,0.670993 1.7501226,1.645774 2.3204666,2.924346 0.570318,1.278597 0.855483,2.801347 0.855497,4.568247 -1.4e-5,2.43043 -0.551707,4.40982 -1.65508,5.93815 -1.215227,1.68491 -2.8069346,2.52736 -4.775128,2.52736 -1.9831188,0 -3.5785543,-0.86482 -4.7863113,-2.59445 -1.09593262,-1.56562 -1.64389762,-3.45554 -1.64389667,-5.66977 z m 1.83400717,0.0335 c -2.8e-6,2.0204 0.4454517,3.58787 1.3363649,4.70244 0.890905,1.11457 1.9737882,1.67185 3.2486529,1.67185 1.3046712,0 2.3987374,-0.56287 3.2822018,-1.68863 0.8834432,-1.12574 1.3251702,-2.78082 1.3251822,-4.96524 -1.2e-5,-1.40904 -0.227399,-2.66899 -0.682161,-3.77984 C 10.289169,99.308298 9.761706,98.628001 9.0571893,98.117299 8.3526532,97.606624 7.5828928,97.35128 6.7479059,97.351265 5.4059434,97.35128 4.3006943,97.910428 3.4321552,99.028711 2.563608,100.14702 2.1293364,101.87665 2.1293392,104.21761 z"
         style="font-size:22.90272331px;fill:#333333"
         id="path3685" />
      <path
         d="m 15,112.36218 0,-16.999997 4.674837,0 c 1.224167,1.6e-5 2.126995,0.107131 2.708487,0.321346 0.795704,0.290757 1.430744,0.830159 1.905122,1.618206 0.474357,0.788077 0.711542,1.755941 0.711554,2.903595 -1.2e-5,1.51492 -0.386392,2.75057 -1.159142,3.70695 -0.772771,0.9564 -2.107912,1.42433 -4.005348,1.43458 L 17,105.36218 l 0,7 z m 2,-9 2.86994,-7.7e-4 c 1.124703,-3e-4 1.947195,-0.25439 2.467477,-0.7632 0.520265,-0.50879 0.780403,-1.27581 0.780412,-2.30107 -9e-6,-0.665632 -0.128166,-1.235638 -0.384467,-1.710022 -0.256321,-0.474353 -0.56619,-0.799524 -0.929608,-0.975514 -0.363435,-0.17596 -1.019516,-0.263948 -1.968244,-0.263963 L 17,97.362183 z"
         style="font-size:22.90272331px;fill:#333333"
         id="path3687"
         inkscape:connector-curvature="0"
         sodipodi:nodetypes="ccccccssccccsscccccc" />
      <path
         d="m 27,112.36218 0,-16.999997 10,0 0,2 -8,0 0,4.999997 7,0 0,2 -7,0 0,6 8,0 0,2 z"
         style="font-size:22.90272331px;fill:#333333"
         id="path3689"
         inkscape:connector-curvature="0"
         sodipodi:nodetypes="ccccccccccccc" />
      <path
         d="m 39,112.36218 0,-16.999997 2,0 7,12.999997 0,-12.999997 2,0 0,16.999997 -2,0 -7,-12.999997 0,12.999997 z"
         style="font-size:22.90272331px;fill:#333333"
         id="path3691"
         inkscape:connector-curvature="0"
         sodipodi:nodetypes="ccccccccccc" />
      <path
         d="m 58,112.36218 0,-16.999997 9,0 0,2 -7,0 0,4.999997 6,0 0,2 -6,0 0,8 z"
         style="font-size:22.90272331px;fill:#333333"
         id="path3693"
         inkscape:connector-curvature="0"
         sodipodi:nodetypes="ccccccccccc" />
      <path
         d="m 68.255995,104.18406 c -10e-7,-2.79573 0.615062,-4.944723 1.84519,-6.446982 1.230123,-1.50223 2.762188,-2.253352 4.596201,-2.253369 1.185386,1.7e-5 2.266405,0.335506 3.243061,1.006468 0.976635,0.670993 1.750123,1.645774 2.320467,2.924346 0.570318,1.278597 0.855483,2.801347 0.855497,4.568247 -1.4e-5,2.43043 -0.551707,4.40982 -1.65508,5.93815 -1.215227,1.68491 -2.806935,2.52736 -4.775128,2.52736 -1.983119,0 -3.578554,-0.86482 -4.786311,-2.59445 -1.095933,-1.56562 -1.643898,-3.45554 -1.643897,-5.66977 z m 1.834007,0.0335 c -3e-6,2.0204 0.445452,3.58787 1.336365,4.70244 0.890905,1.11457 1.973788,1.67185 3.248653,1.67185 1.304671,0 2.398737,-0.56287 3.282202,-1.68863 0.883443,-1.12574 1.32517,-2.78082 1.325182,-4.96524 -1.2e-5,-1.40904 -0.227399,-2.66899 -0.682162,-3.77984 -0.35041,-0.849892 -0.877873,-1.530189 -1.58239,-2.040891 -0.704536,-0.510675 -1.474296,-0.766019 -2.309283,-0.766034 -1.341963,1.5e-5 -2.447212,0.559163 -3.315751,1.677446 -0.868547,1.118309 -1.302819,2.847939 -1.302816,5.188899 z"
         style="font-size:22.90272331px;fill:#333333"
         id="path3695"
         inkscape:connector-curvature="0"
         sodipodi:nodetypes="sscccccscsssssccccss" />
      <path
         d="m 82.883322,104.18406 c -1e-6,-2.79573 0.615062,-4.944723 1.84519,-6.446982 1.230123,-1.50223 2.762188,-2.253352 4.596201,-2.253369 1.185386,1.7e-5 2.266405,0.335506 3.243061,1.006468 0.976635,0.670993 1.750123,1.645774 2.320467,2.924346 0.570317,1.278597 0.855483,2.801347 0.855497,4.568247 -1.4e-5,2.43043 -0.551707,4.40982 -1.65508,5.93815 -1.215227,1.68491 -2.806935,2.52736 -4.775128,2.52736 -1.983119,0 -3.578555,-0.86482 -4.786312,-2.59445 -1.095932,-1.56562 -1.643897,-3.45554 -1.643896,-5.66977 z m 1.834007,0.0335 c -3e-6,2.0204 0.445452,3.58787 1.336365,4.70244 0.890905,1.11457 1.973788,1.67185 3.248653,1.67185 1.304671,0 2.398737,-0.56287 3.282202,-1.68863 0.883443,-1.12574 1.32517,-2.78082 1.325182,-4.96524 -1.2e-5,-1.40904 -0.227399,-2.66899 -0.682162,-3.77984 -0.35041,-0.849892 -0.877873,-1.530189 -1.58239,-2.040891 -0.704536,-0.510675 -1.474296,-0.766019 -2.309283,-0.766034 -1.341963,1.5e-5 -2.447212,0.559163 -3.315751,1.677446 -0.868547,1.118309 -1.302819,2.847939 -1.302816,5.188899 z"
         style="font-size:22.90272331px;fill:#333333"
         id="path3697"
         inkscape:connector-curvature="0"
         sodipodi:nodetypes="sscccccscsssssccccss" />
      <path
         d="m 98,112.36218 0,-16.999997 5,0 c 1.21266,1.6e-5 2.00501,0.174276 2.63497,0.382679 0.82682,0.270189 1.54339,0.719576 2.14974,1.437449 0.60633,0.717903 1.0788,1.622982 1.41741,2.715233 0.33859,1.092286 0.50789,2.387186 0.5079,3.884706 -1e-5,1.9221 -0.28743,3.55278 -0.86225,4.89207 -0.57485,1.33928 -1.31309,2.28875 -2.21471,2.8484 -0.90163,0.55964 -2.17628,0.83946 -3.63306,0.83946 z m 2,-2 3,0 c 1.22054,0 2.01682,-0.19791 2.64678,-0.58773 0.62996,-0.38982 1.11424,-1.01701 1.45285,-1.88157 0.44883,-1.15015 0.67326,-2.52803 0.67327,-4.13365 -1e-5,-1.72137 -0.23822,-3.07416 -0.71461,-4.058372 -0.47642,-0.984193 -1.08866,-1.642257 -1.83673,-1.974198 C 104.71759,97.502677 104.09454,97.362198 103,97.362183 l -3,0 z"
         style="font-size:22.90272331px;fill:#333333"
         id="path3699"
         inkscape:connector-curvature="0"
         sodipodi:nodetypes="ccccccccssccssccccccc" />
      <path
         d="m 118,112.36218 0.0757,-16.999997 9,0 0,2 -7,3.8e-5 0,4.999999 6,0 0,2 -6,0 0,7.99996 z"
         style="font-size:22.90272331px;fill:#333333"
         id="path3701"
         inkscape:connector-curvature="0"
         sodipodi:nodetypes="ccccccccccc" />
      <path
         d="m 128.07572,112.36218 5,-16.999997 2,0 5,16.999997 -2,0 -4,-14.999997 -4.04025,14.999997 z"
         style="font-size:22.90272331px;fill:#333333"
         id="path3703"
         inkscape:connector-curvature="0"
         sodipodi:nodetypes="cccccccc" />
      <path
         d="m 151.36137,106.42065 1.78927,0.54797 c -0.39514,1.84147 -1.08662,3.21511 -2.07444,4.12092 -0.98784,0.90583 -2.19001,1.35874 -3.60651,1.35874 -1.24504,0 -2.30929,-0.30381 -3.19273,-0.91142 -0.88346,-0.6076 -1.60663,-1.58238 -2.1695,-2.92434 -0.56288,-1.34195 -0.84432,-2.92621 -0.84432,-4.75277 0,-1.80417 0.28144,-3.33065 0.84432,-4.579422 0.56287,-1.248751 1.32518,-2.191847 2.28692,-2.829292 0.96173,-0.637413 2.03529,-0.956127 3.22069,-0.956144 1.29722,1.7e-5 2.41179,0.404467 3.34371,1.213353 0.9319,0.808916 1.58424,1.996173 1.95702,3.561775 l -1.74454,0.50323 c -0.59644,-2.281308 -1.79302,-3.42197 -3.58974,-3.421985 -0.89464,1.5e-5 -1.66999,0.229266 -2.32605,0.687753 -0.65608,0.458516 -1.17981,1.172361 -1.57121,2.141542 -0.39141,0.9692 -0.58711,2.1956 -0.58711,3.67919 0,2.24406 0.39513,3.92709 1.1854,5.04912 0.79026,1.12202 1.84145,1.68303 3.15359,1.68303 0.96919,0 1.80605,-0.3448 2.51058,-1.03442 0.70452,-0.68962 1.17607,-1.73522 1.41465,-3.13683 z"
         style="font-size:22.90272331px;fill:#333333"
         id="path3705"
         inkscape:connector-curvature="0"
         sodipodi:nodetypes="ccsscssscccccccsssssc" />
      <path
         d="m 159,112.36218 0,-14.999997 -5,0.0061 0,-2.006138 12,0 0,2 -5,0 0,14.999995 z"
         style="font-size:22.90272331px;fill:#333333"
         id="path3707"
         inkscape:connector-curvature="0"
         sodipodi:nodetypes="ccccccccc" />
      <path
         inkscape:connector-curvature="0"
         d="m 167.26826,106.90152 1.67745,-0.17893 c 0.0895,0.9021 0.29262,1.60476 0.60947,2.10799 0.31685,0.50324 0.76976,0.90769 1.35873,1.21336 0.58897,0.30567 1.25249,0.4585 1.99057,0.4585 1.05865,0 1.88059,-0.25907 2.46585,-0.77722 0.58523,-0.51814 0.87785,-1.19098 0.87786,-2.01852 -1e-5,-0.48459 -0.10625,-0.90768 -0.31872,-1.26927 -0.21248,-0.36158 -0.53306,-0.65793 -0.96173,-0.88905 -0.42869,-0.23111 -1.35501,-0.55541 -2.77897,-0.97292 -1.26741,-0.37275 -2.1695,-0.74925 -2.70628,-1.12948 -0.53678,-0.38021 -0.95428,-0.86294 -1.25249,-1.44819 -0.29822,-0.58523 -0.44732,-1.24689 -0.44732,-1.98498 0,-1.32703 0.42868,-2.411777 1.28604,-3.254242 0.85736,-0.842434 2.01293,-1.263659 3.46672,-1.263676 0.99901,1.7e-5 1.87314,0.197583 2.62241,0.592698 0.74925,0.395147 1.33076,0.96175 1.74454,1.699811 0.41376,0.73809 0.63556,1.606633 0.66539,2.605629 l -1.711,0.15656 c -0.0895,-1.066092 -0.40818,-1.856355 -0.95614,-2.370785 -0.54797,-0.514402 -1.31773,-0.77161 -2.30928,-0.771625 -1.00648,1.5e-5 -1.77437,0.225538 -2.30369,0.67657 -0.52934,0.45106 -0.794,1.034438 -0.794,1.750135 0,0.663535 0.19384,1.177955 0.58152,1.543245 0.38767,0.36533 1.25994,0.73436 2.61681,1.10712 1.32704,0.36532 2.25896,0.68217 2.79575,0.95055 0.82007,0.41751 1.43886,0.96734 1.85637,1.64949 0.41749,0.68217 0.62623,1.49666 0.62625,2.44348 -2e-5,0.93937 -0.21995,1.79487 -0.6598,2.56649 -0.43987,0.77163 -1.03816,1.35873 -1.79487,1.76132 -0.75672,0.40258 -1.66813,0.60388 -2.73423,0.60388 -1.66254,0 -2.98772,-0.49951 -3.97555,-1.49852 -0.98783,-0.99901 -1.50038,-2.35215 -1.53766,-4.05942 z"
         style="font-size:22.90272331px;fill:#333333"
         id="path3709" />
      <path
         sodipodi:nodetypes="ccccc"
         inkscape:connector-curvature="0"
         id="path3713"
         style="font-size:22.90272331px;fill:#333333"
         d="m 137.07572,105.36218 0,2 -6,0 0,-2 z" />
    </g>
    <g
       transform="matrix(0.90339875,0,0,1.1069309,0,-0.5)"
       style="font-size:17px;font-style:normal;font-variant:normal;font-weight:normal;font-stretch:normal;line-height:125%;letter-spacing:0px;word-spacing:0px;fill:#333333;fill-opacity:1;stroke:none;font-family:Arial Narrow;-inkscape-font-specification:Arial Narrow"
       id="text3715">
      <path
         d="m 15.786441,133.68193 0.166015,1.31982 c -0.337568,0.0886 -0.64193,0.13282 -0.913085,0.13282 -0.42611,0 -0.769208,-0.0844 -1.029297,-0.25318 -0.260093,-0.16878 -0.43856,-0.39982 -0.535401,-0.69311 -0.09684,-0.29329 -0.145265,-0.87712 -0.145263,-1.75147 l 0,-5.07177 -0.896485,0 0,-1.16211 0.896485,0 0,-2.18311 1.220214,-0.89648 0,3.07959 1.236817,0 0,1.16211 -1.236817,0 0,5.15478 c -2e-6,0.47591 0.03597,0.78304 0.107911,0.92139 0.10514,0.19922 0.301592,0.29883 0.589355,0.29883 0.138343,0 0.318193,-0.0194 0.539551,-0.0581 z"
         style="fill:#333333"
         id="path9117"
         inkscape:connector-curvature="0" />
      <path
         d="m 16.940249,135.01836 0,-12.16895 1.220215,0 0,4.36621 c 0.287758,-0.40396 0.612872,-0.70694 0.975342,-0.90893 0.362464,-0.20198 0.762285,-0.30297 1.199463,-0.30298 0.769201,1e-5 1.376541,0.24488 1.822021,0.73462 0.445469,0.48975 0.668207,1.38762 0.668213,2.6936 l 0,5.58643 -1.220214,0 0,-5.58643 c -6e-6,-0.76366 -0.135585,-1.31152 -0.406739,-1.64355 -0.271164,-0.33203 -0.644698,-0.49804 -1.120605,-0.49805 -0.531254,1e-5 -0.983646,0.21306 -1.357178,0.63916 -0.373537,0.42611 -0.560305,1.18148 -0.560303,2.26611 l 0,4.82276 z"
         style="fill:#333333"
         id="path9119"
         inkscape:connector-curvature="0" />
      <path
         d="m 29.657046,132.17949 1.261719,0.19092 c -0.210293,0.94075 -0.590745,1.65047 -1.141357,2.12915 -0.550624,0.47868 -1.232671,0.71801 -2.046143,0.71802 -1.023766,-1e-5 -1.85246,-0.38876 -2.486084,-1.16626 -0.633627,-0.77751 -0.95044,-1.8995 -0.950439,-3.36597 -1e-6,-1.52181 0.319579,-2.68253 0.95874,-3.48218 0.639158,-0.79963 1.448483,-1.19945 2.427978,-1.19946 0.935217,1e-5 1.71549,0.39291 2.340821,1.17871 0.625318,0.78581 0.937981,1.92302 0.937988,3.41162 l -0.0083,0.39844 -5.395508,0 c 0.0498,0.99056 0.279458,1.73763 0.688965,2.24121 0.409503,0.50358 0.907549,0.75537 1.494141,0.75537 0.918615,0 1.557774,-0.60319 1.91748,-1.80957 z m -4.025879,-2.41553 4.03418,0 c -0.05534,-0.76366 -0.218593,-1.33365 -0.489746,-1.70996 -0.392909,-0.54784 -0.893722,-0.82177 -1.502441,-0.82178 -0.547855,1e-5 -1.015465,0.22828 -1.402832,0.68482 -0.387372,0.45655 -0.600425,1.07219 -0.639161,1.84692 z"
         style="fill:#333333"
         id="path9121"
         inkscape:connector-curvature="0" />
      <path
         d="m 36.71271,135.01836 0,-7.65332 -1.087402,0 0,-1.16211 1.087402,0 0,-0.93799 c -1e-6,-0.69172 0.07194,-1.21052 0.215821,-1.5564 0.143878,-0.34585 0.363849,-0.61009 0.659912,-0.79272 0.296059,-0.18261 0.66821,-0.27392 1.116455,-0.27393 0.348629,1e-5 0.730465,0.0498 1.145508,0.14942 l -0.182617,1.30322 c -0.254562,-0.0553 -0.495284,-0.083 -0.722168,-0.083 -0.365238,1e-5 -0.626712,0.0955 -0.784424,0.28638 -0.157718,0.19093 -0.236575,0.55478 -0.236573,1.09155 l 0,0.81348 1.411133,0 0,1.16211 -1.411133,0 0,7.65332 z"
         style="fill:#333333"
         id="path9123"
         inkscape:connector-curvature="0" />
      <path
         d="m 40.248843,135.01836 0,-8.81543 1.104004,0 0,1.33642 c 0.282224,-0.61978 0.540932,-1.03067 0.776123,-1.23266 0.235186,-0.20198 0.499427,-0.30297 0.792725,-0.30298 0.409501,1e-5 0.827307,0.16049 1.253418,0.48144 l -0.415039,1.38623 c -0.304366,-0.21581 -0.600427,-0.32372 -0.888184,-0.32373 -0.260094,10e-6 -0.49805,0.0913 -0.713867,0.27393 -0.215823,0.18262 -0.368004,0.43718 -0.456543,0.76367 -0.15495,0.56999 -0.232424,1.17595 -0.232422,1.81787 l 0,4.61524 z"
         style="fill:#333333"
         id="path9125"
         inkscape:connector-curvature="0" />
      <path
         d="m 49.844546,132.17949 1.261719,0.19092 c -0.210293,0.94075 -0.590745,1.65047 -1.141357,2.12915 -0.550624,0.47868 -1.232671,0.71801 -2.046143,0.71802 -1.023766,-1e-5 -1.85246,-0.38876 -2.486084,-1.16626 -0.633627,-0.77751 -0.95044,-1.8995 -0.950439,-3.36597 -10e-7,-1.52181 0.319579,-2.68253 0.95874,-3.48218 0.639158,-0.79963 1.448483,-1.19945 2.427978,-1.19946 0.935217,1e-5 1.71549,0.39291 2.340821,1.17871 0.625318,0.78581 0.937981,1.92302 0.937988,3.41162 l -0.0083,0.39844 -5.395508,0 c 0.0498,0.99056 0.279458,1.73763 0.688965,2.24121 0.409503,0.50358 0.907549,0.75537 1.494141,0.75537 0.918615,0 1.557774,-0.60319 1.91748,-1.80957 z m -4.025879,-2.41553 4.03418,0 c -0.05534,-0.76366 -0.218593,-1.33365 -0.489746,-1.70996 -0.392909,-0.54784 -0.893722,-0.82177 -1.502441,-0.82178 -0.547855,1e-5 -1.015465,0.22828 -1.402832,0.68482 -0.387372,0.45655 -0.600425,1.07219 -0.639161,1.84692 z"
         style="fill:#333333"
         id="path9127"
         inkscape:connector-curvature="0" />
      <path
         d="m 57.614078,132.17949 1.261718,0.19092 c -0.210293,0.94075 -0.590745,1.65047 -1.141357,2.12915 -0.550624,0.47868 -1.232671,0.71801 -2.046143,0.71802 -1.023766,-1e-5 -1.852459,-0.38876 -2.486084,-1.16626 -0.633627,-0.77751 -0.95044,-1.8995 -0.950439,-3.36597 -10e-7,-1.52181 0.319579,-2.68253 0.95874,-3.48218 0.639158,-0.79963 1.448484,-1.19945 2.427979,-1.19946 0.935216,1e-5 1.715489,0.39291 2.34082,1.17871 0.625319,0.78581 0.937981,1.92302 0.937988,3.41162 l -0.0083,0.39844 -5.395507,0 c 0.0498,0.99056 0.279457,1.73763 0.688964,2.24121 0.409503,0.50358 0.907549,0.75537 1.494141,0.75537 0.918615,0 1.557775,-0.60319 1.917481,-1.80957 z m -4.025879,-2.41553 4.034179,0 c -0.05534,-0.76366 -0.218593,-1.33365 -0.489746,-1.70996 -0.392908,-0.54784 -0.893722,-0.82177 -1.502441,-0.82178 -0.547855,1e-5 -1.015465,0.22828 -1.402832,0.68482 -0.387372,0.45655 -0.600425,1.07219 -0.63916,1.84692 z"
         style="fill:#333333"
         id="path9129"
         inkscape:connector-curvature="0" />
      <path
         d="m 64.669742,135.01836 0,-7.65332 -1.087403,0 0,-1.16211 1.087403,0 0,-0.93799 c -2e-6,-0.69172 0.07194,-1.21052 0.21582,-1.5564 0.143879,-0.34585 0.363849,-0.61009 0.659912,-0.79272 0.296059,-0.18261 0.66821,-0.27392 1.116455,-0.27393 0.348629,1e-5 0.730465,0.0498 1.145508,0.14942 l -0.182617,1.30322 c -0.254561,-0.0553 -0.495284,-0.083 -0.722168,-0.083 -0.365238,1e-5 -0.626712,0.0955 -0.784424,0.28638 -0.157717,0.19093 -0.236575,0.55478 -0.236572,1.09155 l 0,0.81348 1.411133,0 0,1.16211 -1.411133,0 0,7.65332 z"
         style="fill:#333333"
         id="path9131"
         inkscape:connector-curvature="0" />
      <path
         d="m 67.749331,130.61064 c 0,-1.5218 0.31958,-2.67008 0.958741,-3.44482 0.639158,-0.77473 1.448483,-1.1621 2.427978,-1.16211 0.962886,1e-5 1.768061,0.38738 2.415528,1.16211 0.647454,0.77474 0.971184,1.89258 0.971191,3.35351 -7e-6,1.58269 -0.318204,2.7614 -0.95459,3.53614 -0.636399,0.77474 -1.447108,1.1621 -2.432129,1.16211 -0.968427,-1e-5 -1.774986,-0.38876 -2.419678,-1.16626 -0.644694,-0.77751 -0.967041,-1.9244 -0.967041,-3.44068 z m 1.253418,0 c -10e-7,1.13998 0.207518,1.98804 0.622559,2.54419 0.415036,0.55615 0.929684,0.83423 1.543945,0.83423 0.575517,0 1.069413,-0.28084 1.48169,-0.84253 0.412266,-0.56168 0.618402,-1.40698 0.618408,-2.53589 -6e-6,-1.13443 -0.207525,-1.97973 -0.622559,-2.53589 -0.415044,-0.55614 -0.929691,-0.83422 -1.543945,-0.83423 -0.581058,1e-5 -1.076337,0.27947 -1.48584,0.83838 -0.409507,0.55893 -0.614259,1.40284 -0.614258,2.53174 z"
         style="fill:#333333"
         id="path9133"
         inkscape:connector-curvature="0" />
      <path
         d="m 75.518863,130.61064 c -10e-7,-1.5218 0.319579,-2.67008 0.95874,-3.44482 0.639158,-0.77473 1.448483,-1.1621 2.427978,-1.16211 0.962886,1e-5 1.768061,0.38738 2.415528,1.16211 0.647454,0.77474 0.971184,1.89258 0.971191,3.35351 -7e-6,1.58269 -0.318203,2.7614 -0.95459,3.53614 -0.636398,0.77474 -1.447107,1.1621 -2.432129,1.16211 -0.968427,-1e-5 -1.774985,-0.38876 -2.419677,-1.16626 -0.644695,-0.77751 -0.967042,-1.9244 -0.967041,-3.44068 z m 1.253418,0 c -2e-6,1.13998 0.207517,1.98804 0.622558,2.54419 0.415037,0.55615 0.929685,0.83423 1.543946,0.83423 0.575516,0 1.069412,-0.28084 1.481689,-0.84253 0.412266,-0.56168 0.618402,-1.40698 0.618408,-2.53589 -6e-6,-1.13443 -0.207525,-1.97973 -0.622558,-2.53589 -0.415044,-0.55614 -0.929692,-0.83422 -1.543946,-0.83423 -0.581058,1e-5 -1.076337,0.27947 -1.485839,0.83838 -0.409508,0.55893 -0.61426,1.40284 -0.614258,2.53174 z"
         style="fill:#333333"
         id="path9135"
         inkscape:connector-curvature="0" />
      <path
         d="m 88.434878,135.01836 0,-1.11231 c -0.221359,0.42611 -0.506352,0.75122 -0.85498,0.97534 -0.348637,0.22412 -0.724939,0.33618 -1.128906,0.33619 -0.852217,-1e-5 -1.589602,-0.40259 -2.212159,-1.20777 -0.622559,-0.80517 -0.933838,-1.93823 -0.933837,-3.39917 -10e-7,-1.00162 0.138345,-1.85107 0.415039,-2.54834 0.276691,-0.69726 0.646076,-1.21467 1.108154,-1.55224 0.462074,-0.33756 0.975339,-0.50634 1.539795,-0.50635 0.403967,1e-5 0.778885,0.10653 1.124756,0.31958 0.345861,0.21306 0.632237,0.5105 0.859131,0.89233 l 0,-4.36621 1.228515,0 0,12.16895 z m -3.876464,-4.39942 c -2e-6,1.13998 0.197833,1.98666 0.593505,2.54004 0.395668,0.55339 0.856361,0.83008 1.38208,0.83008 0.520179,0 0.971187,-0.26562 1.353028,-0.79688 0.38183,-0.53124 0.572748,-1.33365 0.572754,-2.40722 -6e-6,-1.23405 -0.190924,-2.13468 -0.572754,-2.70191 -0.381841,-0.56721 -0.863286,-0.85082 -1.444336,-0.85083 -0.514652,1e-5 -0.95736,0.27255 -1.328125,0.81763 -0.37077,0.54509 -0.556154,1.40145 -0.556152,2.56909 z"
         style="fill:#333333"
         id="path9137"
         inkscape:connector-curvature="0" />
      <path
         d="m 95.399234,138.39677 0,-12.19384 1.120605,0 0,1.1455 c 0.276691,-0.4759 0.583819,-0.819 0.921387,-1.02929 0.337562,-0.21028 0.724931,-0.31542 1.162109,-0.31543 0.569983,1e-5 1.084631,0.16879 1.543945,0.50635 0.4593,0.33757 0.82869,0.85083 1.10815,1.53979 0.27946,0.68897 0.41919,1.51767 0.41919,2.48608 0,1.49968 -0.31405,2.65487 -0.94213,3.46558 -0.6281,0.81071 -1.365488,1.21606 -2.212162,1.21607 -0.376306,-1e-5 -0.727706,-0.0968 -1.0542,-0.29053 -0.3265,-0.19369 -0.608726,-0.46761 -0.846679,-0.82178 l 0,4.2915 z m 1.104004,-7.73632 c -2e-6,1.13997 0.190916,1.97973 0.572754,2.51928 0.381833,0.53956 0.843909,0.80933 1.38623,0.80933 0.520178,0 0.97672,-0.27946 1.369629,-0.83838 0.392899,-0.55892 0.589349,-1.4222 0.589359,-2.58984 -1e-5,-1.15104 -0.19093,-2.00325 -0.572757,-2.55664 -0.381841,-0.55338 -0.846685,-0.83007 -1.394532,-0.83008 -0.492516,1e-5 -0.940758,0.29745 -1.344726,0.89233 -0.403974,0.5949 -0.605959,1.45956 -0.605957,2.594 z"
         style="fill:#333333"
         id="path9139"
         inkscape:connector-curvature="0" />
      <path
         d="m 103.16877,135.01836 0,-8.81543 1.104,0 0,1.33642 c 0.28222,-0.61978 0.54093,-1.03067 0.77612,-1.23266 0.23519,-0.20198 0.49943,-0.30297 0.79273,-0.30298 0.4095,1e-5 0.8273,0.16049 1.25341,0.48144 l -0.41503,1.38623 c -0.30437,-0.21581 -0.60043,-0.32372 -0.88819,-0.32373 -0.26009,10e-6 -0.49805,0.0913 -0.71387,0.27393 -0.21582,0.18262 -0.368,0.43718 -0.45654,0.76367 -0.15495,0.56999 -0.23242,1.17595 -0.23242,1.81787 l 0,4.61524 z"
         style="fill:#333333"
         id="path9141"
         inkscape:connector-curvature="0" />
      <path
         d="m 107.36066,130.61064 c 0,-1.5218 0.31958,-2.67008 0.95874,-3.44482 0.63916,-0.77473 1.44848,-1.1621 2.42798,-1.16211 0.96288,1e-5 1.76806,0.38738 2.41553,1.16211 0.64745,0.77474 0.97118,1.89258 0.97119,3.35351 -1e-5,1.58269 -0.31821,2.7614 -0.95459,3.53614 -0.6364,0.77474 -1.44711,1.1621 -2.43213,1.16211 -0.96843,-1e-5 -1.77499,-0.38876 -2.41968,-1.16626 -0.64469,-0.77751 -0.96704,-1.9244 -0.96704,-3.44068 z m 1.25342,0 c 0,1.13998 0.20752,1.98804 0.62256,2.54419 0.41503,0.55615 0.92968,0.83423 1.54394,0.83423 0.57552,0 1.06941,-0.28084 1.48169,-0.84253 0.41227,-0.56168 0.6184,-1.40698 0.61841,-2.53589 -1e-5,-1.13443 -0.20753,-1.97973 -0.62256,-2.53589 -0.41504,-0.55614 -0.92969,-0.83422 -1.54394,-0.83423 -0.58106,1e-5 -1.07634,0.27947 -1.48584,0.83838 -0.40951,0.55893 -0.61426,1.40284 -0.61426,2.53174 z"
         style="fill:#333333"
         id="path9143"
         inkscape:connector-curvature="0" />
      <path
         d="m 120.27668,135.01836 0,-1.11231 c -0.22136,0.42611 -0.50636,0.75122 -0.85499,0.97534 -0.34863,0.22412 -0.72493,0.33618 -1.1289,0.33619 -0.85222,-1e-5 -1.5896,-0.40259 -2.21216,-1.20777 -0.62256,-0.80517 -0.93384,-1.93823 -0.93384,-3.39917 0,-1.00162 0.13835,-1.85107 0.41504,-2.54834 0.27669,-0.69726 0.64608,-1.21467 1.10816,-1.55224 0.46207,-0.33756 0.97533,-0.50634 1.53979,-0.50635 0.40397,1e-5 0.77889,0.10653 1.12476,0.31958 0.34586,0.21306 0.63223,0.5105 0.85913,0.89233 l 0,-4.36621 1.22851,0 0,12.16895 z m -3.87647,-4.39942 c 0,1.13998 0.19783,1.98666 0.59351,2.54004 0.39566,0.55339 0.85636,0.83008 1.38208,0.83008 0.52017,0 0.97118,-0.26562 1.35302,-0.79688 0.38183,-0.53124 0.57275,-1.33365 0.57276,-2.40722 -1e-5,-1.23405 -0.19093,-2.13468 -0.57276,-2.70191 -0.38184,-0.56721 -0.86328,-0.85082 -1.44433,-0.85083 -0.51465,1e-5 -0.95736,0.27255 -1.32813,0.81763 -0.37077,0.54509 -0.55615,1.40145 -0.55615,2.56909 z"
         style="fill:#333333"
         id="path9145"
         inkscape:connector-curvature="0" />
      <path
         d="m 128.09601,135.01836 0,-1.29493 c -0.28223,0.49805 -0.61426,0.87159 -0.99609,1.12061 -0.38184,0.24902 -0.81348,0.37353 -1.29492,0.37354 -0.56999,-1e-5 -1.05697,-0.15357 -1.46094,-0.4607 -0.40397,-0.30713 -0.67375,-0.69588 -0.80933,-1.16626 -0.13558,-0.47037 -0.20337,-1.1123 -0.20337,-1.92578 l 0,-5.46191 1.22022,0 0,4.88916 c 0,0.90755 0.0456,1.51489 0.13696,1.82202 0.0913,0.30713 0.26009,0.55339 0.50635,0.73877 0.24625,0.18538 0.52709,0.27808 0.84253,0.27807 0.58658,1e-5 1.06803,-0.24072 1.44433,-0.72216 0.32096,-0.41504 0.48144,-1.17595 0.48145,-2.28272 l 0,-4.72314 1.22851,0 0,8.81543 z"
         style="fill:#333333"
         id="path9147"
         inkscape:connector-curvature="0" />
      <path
         d="m 135.86554,131.78935 1.20362,0.19092 c -0.13836,1.05143 -0.48561,1.85384 -1.04175,2.40723 -0.55616,0.55338 -1.22437,0.83007 -2.00464,0.83008 -0.94629,-1e-5 -1.72518,-0.38876 -2.33667,-1.16626 -0.61149,-0.77751 -0.91724,-1.92717 -0.91724,-3.44898 0,-1.53287 0.30851,-2.68253 0.92554,-3.44897 0.61702,-0.76643 1.40975,-1.14965 2.37817,-1.14966 0.74707,1e-5 1.37654,0.23243 1.88843,0.69726 0.51188,0.46486 0.83976,1.16212 0.98364,2.0918 l -1.18701,0.22412 c -0.11621,-0.59765 -0.3182,-1.04451 -0.60595,-1.34057 -0.28777,-0.29606 -0.63364,-0.44409 -1.0376,-0.4441 -0.6032,1e-5 -1.10263,0.26702 -1.49829,0.80103 -0.39568,0.53402 -0.59351,1.38208 -0.59351,2.54419 0,1.20085 0.18953,2.06966 0.5686,2.60644 0.37907,0.53679 0.86467,0.80518 1.45679,0.80518 0.46484,0 0.86189,-0.17847 1.19116,-0.5354 0.32926,-0.35693 0.53817,-0.9117 0.62671,-1.66431 z"
         style="fill:#333333"
         id="path9149"
         inkscape:connector-curvature="0" />
      <path
         d="m 140.82941,133.68193 0.16602,1.31982 c -0.33757,0.0886 -0.64194,0.13282 -0.91309,0.13282 -0.42611,0 -0.76921,-0.0844 -1.0293,-0.25318 -0.26009,-0.16878 -0.43856,-0.39982 -0.5354,-0.69311 -0.0968,-0.29329 -0.14526,-0.87712 -0.14526,-1.75147 l 0,-5.07177 -0.89649,0 0,-1.16211 0.89649,0 0,-2.18311 1.22021,-0.89648 0,3.07959 1.23682,0 0,1.16211 -1.23682,0 0,5.15478 c 0,0.47591 0.036,0.78304 0.10791,0.92139 0.10514,0.19922 0.3016,0.29883 0.58936,0.29883 0.13834,0 0.31819,-0.0194 0.53955,-0.0581 z"
         style="fill:#333333"
         id="path9151"
         inkscape:connector-curvature="0" />
      <path
         d="m 141.51837,132.38701 1.21192,-0.23242 c 0.0719,0.61979 0.26839,1.08048 0.58935,1.38208 0.32096,0.30159 0.74707,0.45239 1.27832,0.45239 0.53125,0 0.94214,-0.13143 1.23267,-0.39429 0.29052,-0.26285 0.43579,-0.59627 0.43579,-1.00024 0,-0.34863 -0.12452,-0.61979 -0.37353,-0.81348 -0.17156,-0.13281 -0.5866,-0.29882 -1.24512,-0.49805 -0.95183,-0.29329 -1.58822,-0.54231 -1.90918,-0.74707 -0.32097,-0.20474 -0.56999,-0.47867 -0.74707,-0.82177 -0.17709,-0.3431 -0.26563,-0.73323 -0.26563,-1.17041 0,-0.7526 0.24073,-1.36409 0.72217,-1.83448 0.48145,-0.47036 1.14827,-0.70555 2.00049,-0.70556 0.53678,1e-5 1.00854,0.0969 1.41528,0.29053 0.40674,0.19369 0.71802,0.45378 0.93384,0.78027 0.21582,0.3265 0.36523,0.79411 0.44824,1.40283 l -1.19531,0.19922 c -0.11068,-0.96288 -0.63363,-1.44433 -1.56885,-1.44434 -0.53125,1e-5 -0.92692,0.10654 -1.18701,0.31958 -0.26009,0.21306 -0.39014,0.48561 -0.39014,0.81763 0,0.3265 0.12451,0.58383 0.37354,0.77197 0.14941,0.11069 0.59212,0.28777 1.32813,0.53125 1.01269,0.32651 1.66845,0.58521 1.96728,0.77613 0.29882,0.19092 0.53124,0.45101 0.69727,0.78027 0.16601,0.32927 0.24901,0.72079 0.24902,1.17456 -10e-6,0.84115 -0.26702,1.52181 -0.80103,2.04199 -0.53402,0.52018 -1.2631,0.78028 -2.18725,0.78028 -1.7321,0 -2.73649,-0.94629 -3.01319,-2.83887 z"
         style="fill:#333333"
         id="path9153"
         inkscape:connector-curvature="0" />
      <path
         d="m 157.53058,135.01836 0,-1.11231 c -0.22136,0.42611 -0.50635,0.75122 -0.85498,0.97534 -0.34864,0.22412 -0.72494,0.33618 -1.12891,0.33619 -0.85221,-1e-5 -1.5896,-0.40259 -2.21215,-1.20777 -0.62256,-0.80517 -0.93384,-1.93823 -0.93384,-3.39917 0,-1.00162 0.13834,-1.85107 0.41504,-2.54834 0.27669,-0.69726 0.64607,-1.21467 1.10815,-1.55224 0.46208,-0.33756 0.97534,-0.50634 1.5398,-0.50635 0.40396,1e-5 0.77888,0.10653 1.12475,0.31958 0.34586,0.21306 0.63224,0.5105 0.85913,0.89233 l 0,-4.36621 1.22852,0 0,12.16895 z m -3.87646,-4.39942 c -1e-5,1.13998 0.19783,1.98666 0.5935,2.54004 0.39567,0.55339 0.85636,0.83008 1.38208,0.83008 0.52018,0 0.97119,-0.26562 1.35303,-0.79688 0.38183,-0.53124 0.57275,-1.33365 0.57275,-2.40722 0,-1.23405 -0.19092,-2.13468 -0.57275,-2.70191 -0.38184,-0.56721 -0.86329,-0.85082 -1.44434,-0.85083 -0.51465,1e-5 -0.95736,0.27255 -1.32812,0.81763 -0.37077,0.54509 -0.55616,1.40145 -0.55615,2.56909 z"
         style="fill:#333333"
         id="path9155"
         inkscape:connector-curvature="0" />
      <path
         d="m 165.32502,133.93095 c -0.40952,0.42611 -0.83562,0.74707 -1.27833,0.96289 -0.44271,0.21582 -0.90202,0.32373 -1.37792,0.32374 -0.75261,-1e-5 -1.35303,-0.22689 -1.80127,-0.68067 -0.44825,-0.45377 -0.67237,-1.06526 -0.67237,-1.83447 0,-0.50911 0.10514,-0.96012 0.31543,-1.35303 0.21029,-0.3929 0.49805,-0.70003 0.86328,-0.92139 0.36524,-0.22135 0.91862,-0.38459 1.66016,-0.48974 0.99609,-0.14388 1.72656,-0.31543 2.19141,-0.51465 l 0.008,-0.38184 c -1e-5,-0.60318 -0.10792,-1.02652 -0.32373,-1.27002 -0.30437,-0.35415 -0.77198,-0.53124 -1.40284,-0.53125 -0.56999,1e-5 -0.99609,0.11761 -1.27832,0.35279 -0.28223,0.23519 -0.48974,0.67652 -0.62255,1.32397 l -1.20362,-0.19922 c 0.17155,-0.94628 0.5188,-1.63524 1.04175,-2.06689 0.52295,-0.43163 1.2714,-0.64745 2.24536,-0.64746 0.75813,1e-5 1.35302,0.1425 1.78467,0.42749 0.43163,0.285 0.70418,0.63778 0.81763,1.05835 0.11343,0.42058 0.17016,1.03483 0.17016,1.84277 l 0,1.99219 c 0,1.39453 0.0263,2.27303 0.0789,2.6355 0.0526,0.36246 0.15632,0.71525 0.31128,1.05835 l -1.27832,0 c -0.12729,-0.30437 -0.21029,-0.66683 -0.24902,-1.08741 z m -0.0996,-3.33691 c -0.44825,0.22136 -1.11508,0.40951 -2.00049,0.56445 -0.51465,0.0885 -0.87435,0.18954 -1.0791,0.30298 -0.20476,0.11345 -0.36386,0.27393 -0.4773,0.48145 -0.11344,0.20752 -0.17017,0.44686 -0.17017,0.71801 0,0.42058 0.13005,0.75676 0.39014,1.00855 0.26009,0.25179 0.61979,0.37769 1.0791,0.37768 0.43717,1e-5 0.83423,-0.11344 1.19117,-0.34033 0.35692,-0.22688 0.62393,-0.52986 0.80102,-0.90893 0.17708,-0.37907 0.26562,-0.93107 0.26563,-1.65601 z"
         style="fill:#333333"
         id="path9157"
         inkscape:connector-curvature="0" />
      <path
         d="m 171.11066,133.68193 0.16602,1.31982 c -0.33757,0.0886 -0.64194,0.13282 -0.91309,0.13282 -0.42611,0 -0.76921,-0.0844 -1.0293,-0.25318 -0.26009,-0.16878 -0.43856,-0.39982 -0.5354,-0.69311 -0.0968,-0.29329 -0.14526,-0.87712 -0.14526,-1.75147 l 0,-5.07177 -0.89649,0 0,-1.16211 0.89649,0 0,-2.18311 1.22021,-0.89648 0,3.07959 1.23682,0 0,1.16211 -1.23682,0 0,5.15478 c 0,0.47591 0.036,0.78304 0.10791,0.92139 0.10514,0.19922 0.3016,0.29883 0.58936,0.29883 0.13834,0 0.31819,-0.0194 0.53955,-0.0581 z"
         style="fill:#333333"
         id="path9159"
         inkscape:connector-curvature="0" />
      <path
         d="m 176.97931,133.93095 c -0.40951,0.42611 -0.83561,0.74707 -1.27832,0.96289 -0.44271,0.21582 -0.90202,0.32373 -1.37793,0.32374 -0.7526,-1e-5 -1.35303,-0.22689 -1.80127,-0.68067 -0.44824,-0.45377 -0.67236,-1.06526 -0.67236,-1.83447 0,-0.50911 0.10514,-0.96012 0.31543,-1.35303 0.21028,-0.3929 0.49804,-0.70003 0.86328,-0.92139 0.36523,-0.22135 0.91862,-0.38459 1.66016,-0.48974 0.99609,-0.14388 1.72655,-0.31543 2.1914,-0.51465 l 0.008,-0.38184 c 0,-0.60318 -0.10791,-1.02652 -0.32373,-1.27002 -0.30436,-0.35415 -0.77197,-0.53124 -1.40283,-0.53125 -0.56999,1e-5 -0.9961,0.11761 -1.27832,0.35279 -0.28223,0.23519 -0.48975,0.67652 -0.62256,1.32397 l -1.20361,-0.19922 c 0.17155,-0.94628 0.5188,-1.63524 1.04175,-2.06689 0.52294,-0.43163 1.2714,-0.64745 2.24536,-0.64746 0.75813,1e-5 1.35302,0.1425 1.78467,0.42749 0.43163,0.285 0.70417,0.63778 0.81762,1.05835 0.11344,0.42058 0.17016,1.03483 0.17017,1.84277 l 0,1.99219 c -1e-5,1.39453 0.0263,2.27303 0.0789,2.6355 0.0526,0.36246 0.15632,0.71525 0.31128,1.05835 l -1.27832,0 c -0.12729,-0.30437 -0.2103,-0.66683 -0.24903,-1.08741 z m -0.0996,-3.33691 c -0.44824,0.22136 -1.11507,0.40951 -2.00049,0.56445 -0.51465,0.0885 -0.87435,0.18954 -1.0791,0.30298 -0.20475,0.11345 -0.36385,0.27393 -0.47729,0.48145 -0.11345,0.20752 -0.17017,0.44686 -0.17017,0.71801 0,0.42058 0.13005,0.75676 0.39014,1.00855 0.26009,0.25179 0.61979,0.37769 1.0791,0.37768 0.43717,1e-5 0.83422,-0.11344 1.19116,-0.34033 0.35693,-0.22688 0.62394,-0.52986 0.80103,-0.90893 0.17708,-0.37907 0.26562,-0.93107 0.26562,-1.65601 z"
         style="fill:#333333"
         id="path9161"
         inkscape:connector-curvature="0" />
      <path
         d="m 181.16291,135.01836 -1.13721,0 0,-12.16895 1.22021,0 0,4.34131 c 0.26009,-0.39843 0.55477,-0.69587 0.88404,-0.89233 0.32926,-0.19645 0.69588,-0.29467 1.09985,-0.29468 0.56445,1e-5 1.07771,0.16879 1.5398,0.50635 0.46207,0.33757 0.83145,0.84945 1.10815,1.53564 0.27669,0.6862 0.41503,1.51905 0.41504,2.49854 -1e-5,1.49414 -0.31267,2.64656 -0.93799,3.45727 -0.62533,0.81071 -1.3558,1.21606 -2.19141,1.21607 -0.42057,-1e-5 -0.79826,-0.1093 -1.13305,-0.32789 -0.3348,-0.21858 -0.62395,-0.5437 -0.86743,-0.97534 z m -0.0166,-4.47412 c 0,0.91308 0.083,1.59652 0.24903,2.05029 0.16601,0.45378 0.4012,0.79964 0.70556,1.0376 0.30436,0.23795 0.64193,0.35693 1.0127,0.35693 0.50358,0 0.95043,-0.28361 1.34058,-0.85083 0.39013,-0.56722 0.58519,-1.41528 0.5852,-2.54419 -1e-5,-1.15657 -0.18816,-2.00602 -0.56445,-2.54834 -0.37631,-0.54231 -0.83839,-0.81347 -1.38623,-0.81348 -0.50359,1e-5 -0.95321,0.28362 -1.34888,0.85083 -0.39567,0.56723 -0.59351,1.38762 -0.59351,2.46119 z"
         style="fill:#333333"
         id="path9163"
         inkscape:connector-curvature="0" />
      <path
         d="m 192.51837,133.93095 c -0.40951,0.42611 -0.83561,0.74707 -1.27832,0.96289 -0.44271,0.21582 -0.90202,0.32373 -1.37793,0.32374 -0.7526,-1e-5 -1.35302,-0.22689 -1.80127,-0.68067 -0.44824,-0.45377 -0.67236,-1.06526 -0.67236,-1.83447 0,-0.50911 0.10514,-0.96012 0.31543,-1.35303 0.21029,-0.3929 0.49805,-0.70003 0.86328,-0.92139 0.36523,-0.22135 0.91862,-0.38459 1.66016,-0.48974 0.99609,-0.14388 1.72656,-0.31543 2.19141,-0.51465 l 0.008,-0.38184 c -1e-5,-0.60318 -0.10792,-1.02652 -0.32373,-1.27002 -0.30437,-0.35415 -0.77198,-0.53124 -1.40284,-0.53125 -0.56999,1e-5 -0.99609,0.11761 -1.27832,0.35279 -0.28223,0.23519 -0.48975,0.67652 -0.62256,1.32397 l -1.20361,-0.19922 c 0.17155,-0.94628 0.5188,-1.63524 1.04175,-2.06689 0.52295,-0.43163 1.2714,-0.64745 2.24536,-0.64746 0.75813,1e-5 1.35302,0.1425 1.78467,0.42749 0.43163,0.285 0.70417,0.63778 0.81763,1.05835 0.11343,0.42058 0.17015,1.03483 0.17016,1.84277 l 0,1.99219 c -1e-5,1.39453 0.0263,2.27303 0.0789,2.6355 0.0526,0.36246 0.15632,0.71525 0.31128,1.05835 l -1.27832,0 c -0.12729,-0.30437 -0.21029,-0.66683 -0.24903,-1.08741 z m -0.0996,-3.33691 c -0.44825,0.22136 -1.11508,0.40951 -2.00049,0.56445 -0.51465,0.0885 -0.87435,0.18954 -1.0791,0.30298 -0.20476,0.11345 -0.36386,0.27393 -0.4773,0.48145 -0.11345,0.20752 -0.17017,0.44686 -0.17017,0.71801 0,0.42058 0.13005,0.75676 0.39014,1.00855 0.26009,0.25179 0.61979,0.37769 1.0791,0.37768 0.43717,1e-5 0.83423,-0.11344 1.19116,-0.34033 0.35693,-0.22688 0.62394,-0.52986 0.80103,-0.90893 0.17708,-0.37907 0.26562,-0.93107 0.26563,-1.65601 z"
         style="fill:#333333"
         id="path9165"
         inkscape:connector-curvature="0" />
      <path
         d="m 195.10822,132.38701 1.21191,-0.23242 c 0.0719,0.61979 0.26839,1.08048 0.58936,1.38208 0.32096,0.30159 0.74707,0.45239 1.27832,0.45239 0.53124,0 0.94213,-0.13143 1.23266,-0.39429 0.29053,-0.26285 0.43579,-0.59627 0.4358,-1.00024 -1e-5,-0.34863 -0.12452,-0.61979 -0.37354,-0.81348 -0.17155,-0.13281 -0.58659,-0.29882 -1.24512,-0.49805 -0.95182,-0.29329 -1.58822,-0.54231 -1.90918,-0.74707 -0.32096,-0.20474 -0.56999,-0.47867 -0.74707,-0.82177 -0.17708,-0.3431 -0.26562,-0.73323 -0.26562,-1.17041 0,-0.7526 0.24072,-1.36409 0.72217,-1.83448 0.48144,-0.47036 1.14827,-0.70555 2.00048,-0.70556 0.53678,1e-5 1.00854,0.0969 1.41529,0.29053 0.40673,0.19369 0.71801,0.45378 0.93384,0.78027 0.21581,0.3265 0.36522,0.79411 0.44824,1.40283 l -1.19532,0.19922 c -0.11068,-0.96288 -0.63363,-1.44433 -1.56884,-1.44434 -0.53126,1e-5 -0.92693,0.10654 -1.18701,0.31958 -0.2601,0.21306 -0.39014,0.48561 -0.39014,0.81763 0,0.3265 0.12451,0.58383 0.37353,0.77197 0.14942,0.11069 0.59212,0.28777 1.32813,0.53125 1.01269,0.32651 1.66845,0.58521 1.96728,0.77613 0.29883,0.19092 0.53125,0.45101 0.69727,0.78027 0.16601,0.32927 0.24902,0.72079 0.24902,1.17456 0,0.84115 -0.26701,1.52181 -0.80102,2.04199 -0.53402,0.52018 -1.26311,0.78028 -2.18726,0.78028 -1.7321,0 -2.73649,-0.94629 -3.01318,-2.83887 z"
         style="fill:#333333"
         id="path9167"
         inkscape:connector-curvature="0" />
      <path
         d="m 207.49298,132.17949 1.26172,0.19092 c -0.21029,0.94075 -0.59074,1.65047 -1.14135,2.12915 -0.55063,0.47868 -1.23268,0.71801 -2.04615,0.71802 -1.02376,-1e-5 -1.85246,-0.38876 -2.48608,-1.16626 -0.63363,-0.77751 -0.95044,-1.8995 -0.95044,-3.36597 0,-1.52181 0.31958,-2.68253 0.95874,-3.48218 0.63916,-0.79963 1.44848,-1.19945 2.42798,-1.19946 0.93521,1e-5 1.71549,0.39291 2.34082,1.17871 0.62532,0.78581 0.93798,1.92302 0.93799,3.41162 l -0.008,0.39844 -5.39551,0 c 0.0498,0.99056 0.27946,1.73763 0.68896,2.24121 0.40951,0.50358 0.90755,0.75537 1.49414,0.75537 0.91862,0 1.55778,-0.60319 1.91748,-1.80957 z m -4.02588,-2.41553 4.03418,0 c -0.0553,-0.76366 -0.21859,-1.33365 -0.48974,-1.70996 -0.39291,-0.54784 -0.89372,-0.82177 -1.50244,-0.82178 -0.54786,1e-5 -1.01547,0.22828 -1.40283,0.68482 -0.38738,0.45655 -0.60043,1.07219 -0.63917,1.84692 z"
         style="fill:#333333"
         id="path9169"
         inkscape:connector-curvature="0" />
    </g>
    <rect
       id="rect3719"
       width="5"
       height="5"
       x="121"
       y="9"
       style="fill:none"
       inkscape:export-filename="C:\Users\Stéphane\Desktop\Blogs\OpenFoodFacts\openfoodfacts-logo-356.png"
       inkscape:export-xdpi="180"
       inkscape:export-ydpi="180" />
    <rect
       inkscape:export-ydpi="180"
       inkscape:export-xdpi="180"
       inkscape:export-filename="C:\Users\Stéphane\Desktop\Blogs\OpenFoodFacts\openfoodfacts-logo-356.png"
       style="fill:none"
       y="9"
       x="121"
       height="5"
       width="5"
       id="rect3723" />
    <rect
       style="fill:none"
       id="rect3725"
       width="1"
       height="1"
       x="12"
       y="152"
       inkscape:export-filename="C:\Users\Stéphane\Desktop\Blogs\OpenFoodFacts\openfoodfacts-logo-fr.png"
       inkscape:export-xdpi="90"
       inkscape:export-ydpi="90" />
  </g>
</svg>
